<svg width="48" height="72" viewBox="0 0 48 72" fill="none" xmlns="http://www.w3.org/2000/svg">
<path d="M48 72H0V0H48V72ZM1.2002 55.3096V69.5996H23.4004V55.3096H1.2002ZM24.5996 55.3096V69.5996H46.7998V55.3096H24.5996ZM1.09961 10.458V54.2178H46.8096V10.458H1.09961ZM7.60938 46.418V54.1074H1.20996V46.418H7.60938ZM14.1299 46.418V54.1074H7.72949V46.418H14.1299ZM20.6396 46.418V54.1074H14.2393V46.418H20.6396ZM27.1592 46.418V54.1074H20.7598V46.418H27.1592ZM33.6699 46.418V54.1074H27.2695V46.418H33.6699ZM40.1797 46.418V54.1074H33.7793V46.418H40.1797ZM46.6992 46.418V54.1074H40.2998V46.418H46.6992ZM15.3398 46.918C15.2399 46.918 15.1496 46.9376 15.0596 46.9775C14.9796 47.0175 14.9094 47.0677 14.8594 47.1377C14.8094 47.2077 14.7793 47.288 14.7793 47.3779H14.9795C14.9795 47.3179 14.9993 47.2675 15.0293 47.2275C15.0592 47.1876 15.1093 47.1577 15.1592 47.1377C15.2092 47.1177 15.2701 47.1074 15.3301 47.1074C15.3899 47.1075 15.4501 47.1175 15.5 47.1475C15.5499 47.1675 15.5794 47.2081 15.6094 47.248C15.6393 47.288 15.6494 47.3475 15.6494 47.3975C15.6494 47.4474 15.6296 47.5076 15.5996 47.5576C15.5696 47.6076 15.5295 47.638 15.4795 47.668C15.4296 47.6879 15.3696 47.708 15.2998 47.708H15.1592V47.8975H15.2998C15.3896 47.8975 15.4595 47.9076 15.5293 47.9375C15.5893 47.9675 15.6399 48.0076 15.6699 48.0576C15.6999 48.1075 15.7197 48.1676 15.7197 48.2275C15.7197 48.2874 15.6998 48.3477 15.6699 48.3877C15.6399 48.4377 15.5893 48.468 15.5293 48.498C15.4695 48.5278 15.4097 48.538 15.3301 48.5381C15.2601 48.5381 15.1994 48.5278 15.1494 48.5078C15.0896 48.4878 15.0495 48.4579 15.0195 48.418C14.9895 48.378 14.97 48.3276 14.96 48.2676H14.75C14.75 48.3576 14.7801 48.4378 14.8301 48.5078C14.8801 48.5777 14.9501 48.628 15.04 48.668C15.1299 48.7078 15.23 48.7275 15.3398 48.7275C15.4497 48.7275 15.5497 48.7079 15.6396 48.668C15.7296 48.628 15.7996 48.5673 15.8496 48.4873C15.8995 48.4074 15.9297 48.3274 15.9297 48.2275C15.9296 48.1178 15.8996 48.0281 15.8398 47.9482C15.7799 47.8683 15.6899 47.8276 15.5801 47.8076L15.5693 47.7979C15.6593 47.7579 15.7293 47.7076 15.7793 47.6377C15.8293 47.5677 15.8594 47.4877 15.8594 47.3877C15.8594 47.3079 15.8396 47.2281 15.7998 47.1582C15.7598 47.0882 15.6991 47.0273 15.6191 46.9873C15.5393 46.9475 15.4495 46.918 15.3398 46.918ZM8.83984 46.918C8.73986 46.918 8.64955 46.9376 8.55957 46.9775C8.47957 47.0175 8.40938 47.0677 8.35938 47.1377C8.3094 47.2077 8.2793 47.288 8.2793 47.3779H8.47949C8.47949 47.3179 8.4993 47.2675 8.5293 47.2275C8.55923 47.1876 8.60929 47.1577 8.65918 47.1377C8.70918 47.1177 8.77008 47.1074 8.83008 47.1074C8.88992 47.1075 8.95013 47.1175 9 47.1475C9.04986 47.1675 9.07942 47.2081 9.10938 47.248C9.13927 47.288 9.14937 47.3475 9.14941 47.3975C9.14941 47.4474 9.12957 47.5076 9.09961 47.5576C9.06961 47.6076 9.02949 47.638 8.97949 47.668C8.92957 47.6879 8.86964 47.708 8.7998 47.708H8.65918V47.8975H8.7998C8.88963 47.8975 8.95961 47.9076 9.01953 47.9375C9.07941 47.9674 9.12916 48.0078 9.15918 48.0576C9.18914 48.1076 9.20991 48.1676 9.20996 48.2275C9.20996 48.2875 9.18918 48.3477 9.15918 48.3877C9.12917 48.4376 9.07948 48.4681 9.01953 48.498V48.4873C8.95953 48.5173 8.89934 48.5273 8.81934 48.5273C8.74951 48.5273 8.68956 48.518 8.63965 48.498C8.57983 48.4781 8.53974 48.448 8.50977 48.4082C8.47977 48.3682 8.45922 48.3178 8.44922 48.2578H8.23926C8.23927 48.3478 8.26935 48.4281 8.31934 48.498C8.36932 48.568 8.43937 48.6182 8.5293 48.6582C8.6193 48.6982 8.72008 48.7178 8.83008 48.7178C8.93989 48.7177 9.04001 48.6981 9.12988 48.6582C9.21985 48.6182 9.28986 48.5575 9.33984 48.4775C9.38974 48.3976 9.41992 48.3177 9.41992 48.2178C9.41992 48.1078 9.39005 48.0175 9.33008 47.9375C9.27008 47.8575 9.17934 47.8179 9.06934 47.7979C9.15929 47.7579 9.2293 47.7076 9.2793 47.6377C9.3293 47.5677 9.35938 47.4877 9.35938 47.3877C9.35936 47.3079 9.33963 47.2281 9.2998 47.1582C9.2598 47.0882 9.19914 47.0273 9.11914 46.9873C9.03934 46.9475 8.94948 46.918 8.83984 46.918ZM10.3301 46.918C10.2003 46.918 10.0899 46.9576 10 47.0273C9.91001 47.0973 9.84004 47.2079 9.79004 47.3379C9.74007 47.4678 9.71975 47.6275 9.71973 47.8174C9.71973 48.0074 9.74004 48.1776 9.79004 48.3076C9.84004 48.4476 9.91 48.5482 10 48.6182C10.0899 48.6879 10.2003 48.7178 10.3301 48.7178C10.4597 48.7177 10.5694 48.6878 10.6592 48.6182C10.7492 48.5482 10.8191 48.4376 10.8691 48.3076C10.9191 48.1676 10.9395 48.0074 10.9395 47.8174C10.9394 47.6276 10.9191 47.4678 10.8691 47.3379C10.8191 47.1979 10.7492 47.0973 10.6592 47.0273C10.5694 46.9577 10.4596 46.9181 10.3301 46.918ZM3.72949 46.918C3.6096 46.918 3.50986 46.9481 3.41992 46.998C3.33992 47.048 3.26973 47.118 3.21973 47.208C3.16978 47.298 3.14941 47.3881 3.14941 47.498C3.14945 47.6079 3.16977 47.7079 3.21973 47.7979C3.26972 47.8878 3.33996 47.9578 3.41992 48.0078C3.50972 48.0576 3.59947 48.0781 3.69922 48.0781C3.75905 48.0781 3.81923 48.0677 3.86914 48.0479C3.92911 48.0279 3.97954 47.9978 4.01953 47.9678C4.05953 47.9378 4.12988 47.8477 4.12988 47.8477H4.13965C4.13965 48.0676 4.09951 48.2277 4.01953 48.3477C3.93953 48.4677 3.82922 48.5273 3.69922 48.5273C3.60949 48.5273 3.53937 48.4981 3.47949 48.4482C3.42952 48.3983 3.38915 48.328 3.36914 48.248H3.15918C3.1692 48.3379 3.20009 48.4174 3.25 48.4873C3.29995 48.5572 3.35958 48.6075 3.43945 48.6475C3.51934 48.6874 3.60935 48.708 3.69922 48.708C3.78922 48.708 3.87996 48.6875 3.95996 48.6475C4.03968 48.5976 4.10928 48.5377 4.15918 48.458C4.21913 48.3781 4.26005 48.2781 4.29004 48.1582C4.32002 48.0383 4.33007 47.9079 4.33008 47.748V47.7373C4.33006 47.5775 4.31926 47.4478 4.2793 47.3379C4.24931 47.2379 4.19961 47.1479 4.13965 47.0879C4.07965 47.0279 4.00945 46.988 3.93945 46.958C3.86947 46.928 3.79948 46.918 3.72949 46.918ZM2.23926 46.9375C2.13947 46.9375 2.04979 46.9581 1.95996 46.998C1.87996 47.038 1.80953 47.0977 1.76953 47.1777C1.71954 47.2577 1.69922 47.3482 1.69922 47.4482H1.89941C1.89941 47.3782 1.90945 47.3273 1.93945 47.2773C1.96939 47.2275 2.00975 47.1881 2.05957 47.1582C2.10949 47.1283 2.16941 47.1182 2.23926 47.1182C2.29921 47.1182 2.3592 47.1283 2.40918 47.1582C2.45913 47.1782 2.49931 47.2179 2.5293 47.2578C2.5593 47.2978 2.56934 47.358 2.56934 47.418C2.56931 47.4677 2.55988 47.5176 2.54004 47.5674C2.52005 47.6174 2.48943 47.6676 2.43945 47.7275C2.39945 47.7775 2.33953 47.848 2.26953 47.918L1.68945 48.5479V48.6982H2.79004V48.5078H1.97949L2 48.4873L2.38965 48.0674C2.48942 47.9576 2.56916 47.8678 2.61914 47.7979C2.67914 47.7179 2.71926 47.6577 2.73926 47.5977C2.75922 47.5378 2.76949 47.478 2.76953 47.4082C2.76953 47.3182 2.74922 47.238 2.69922 47.168C2.65926 47.098 2.58966 47.038 2.50977 46.998C2.42977 46.958 2.33926 46.9375 2.23926 46.9375ZM16.6797 46.9375V46.9482L16.2393 47.2373V47.4482L16.6699 47.168H16.6797V48.6875H16.8896V46.9375H16.6797ZM10.3398 47.1074C10.4297 47.1075 10.4997 47.1277 10.5596 47.1875C10.6195 47.2375 10.6692 47.3178 10.6992 47.4277C10.7292 47.5376 10.75 47.6675 10.75 47.8174C10.75 48.0473 10.7096 48.2277 10.6396 48.3477C10.5697 48.4676 10.4697 48.5273 10.3398 48.5273C10.2498 48.5273 10.1791 48.5082 10.1191 48.4482C10.0592 48.3983 10.0095 48.3179 9.97949 48.208C9.96446 48.1529 9.95211 48.0925 9.94336 48.0273L9.92969 47.8174C9.93087 47.5923 9.9711 47.416 10.04 47.2979C10.12 47.1679 10.2099 47.1074 10.3398 47.1074ZM3.72949 47.1074C3.79949 47.1074 3.85992 47.128 3.91992 47.168C3.9698 47.198 4.01987 47.2478 4.0498 47.3076C4.07914 47.3663 4.09778 47.4251 4.09863 47.4932C4.09794 47.5414 4.08861 47.5895 4.06934 47.6377C4.04934 47.6877 4.02925 47.7276 3.98926 47.7676C3.95926 47.8076 3.91912 47.8374 3.86914 47.8574C3.81928 47.8773 3.76959 47.8877 3.71973 47.8877C3.64973 47.8877 3.5893 47.8679 3.5293 47.8379C3.47944 47.8079 3.4294 47.758 3.39941 47.6982C3.36945 47.6383 3.34966 47.568 3.34961 47.498C3.34961 47.4281 3.36946 47.3578 3.39941 47.2979C3.43941 47.2379 3.48004 47.1982 3.54004 47.1582C3.59 47.1283 3.65959 47.1074 3.72949 47.1074ZM7.60938 38.6182V46.3076H1.20996V38.6182H7.60938ZM14.1299 38.6182V46.3076H7.72949V38.6182H14.1299ZM20.6396 38.6182V46.3076H14.2393V38.6182H20.6396ZM27.1494 38.6182V46.3076H20.75V38.6182H27.1494ZM33.6699 38.6182V46.3076H27.2695V38.6182H33.6699ZM40.1797 38.6182V46.3076H33.7793V38.6182H40.1797ZM46.6992 38.6182V46.3076H40.2998V38.6182H46.6992ZM10.2793 39.1182C10.1795 39.1182 10.0898 39.1379 10 39.1777C9.92 39.2177 9.8498 39.2679 9.7998 39.3379C9.7498 39.4079 9.71973 39.4881 9.71973 39.5781H9.91992C9.91992 39.5181 9.93973 39.4677 9.96973 39.4277C9.99972 39.3878 10.0497 39.3579 10.0996 39.3379C10.1496 39.3179 10.2096 39.3076 10.2695 39.3076C10.3295 39.3076 10.3895 39.3177 10.4395 39.3477C10.4895 39.3677 10.5198 39.4082 10.5498 39.4482C10.5796 39.4882 10.5898 39.5478 10.5898 39.5977C10.5898 39.6476 10.57 39.7078 10.54 39.7578C10.51 39.8078 10.4699 39.8382 10.4199 39.8682C10.3699 39.8982 10.3093 39.9082 10.2393 39.9082H10.0996V40.0977H10.2393C10.3293 40.0977 10.3997 40.1077 10.4697 40.1377C10.5297 40.1677 10.5794 40.2079 10.6094 40.2578C10.6394 40.3078 10.6592 40.3677 10.6592 40.4277C10.6592 40.4877 10.6394 40.5479 10.6094 40.5879C10.5794 40.6378 10.5296 40.6683 10.4697 40.6982C10.4098 40.7282 10.3495 40.7373 10.2695 40.7373C10.1997 40.7373 10.1398 40.7279 10.0898 40.708C10.04 40.6881 9.99 40.658 9.95996 40.6182C9.92996 40.5782 9.90941 40.5278 9.89941 40.4678H9.68945C9.68946 40.5578 9.71953 40.638 9.76953 40.708C9.81953 40.7779 9.88955 40.8282 9.97949 40.8682C10.0694 40.9081 10.1694 40.9277 10.2793 40.9277C10.3893 40.9277 10.4901 40.9082 10.5801 40.8682C10.67 40.8282 10.7401 40.7674 10.79 40.6875C10.8399 40.6076 10.8691 40.5276 10.8691 40.4277C10.8691 40.3177 10.8393 40.2275 10.7793 40.1475C10.7193 40.0677 10.6294 40.0278 10.5195 40.0078L10.5098 39.998C10.5997 39.9581 10.6697 39.9079 10.7197 39.8379C10.7697 39.7679 10.7998 39.6878 10.7998 39.5879C10.7998 39.5079 10.7793 39.4274 10.7393 39.3574C10.6993 39.2876 10.6394 39.2274 10.5596 39.1875C10.4796 39.1475 10.3892 39.1182 10.2793 39.1182ZM29.8398 39.1377C29.7499 39.1377 29.66 39.1583 29.5801 39.1982C29.5001 39.2482 29.4398 39.3078 29.3799 39.3877C29.3199 39.4676 29.28 39.5676 29.25 39.6875C29.22 39.8075 29.21 39.9377 29.21 40.0977C29.21 40.2577 29.2198 40.388 29.2598 40.498C29.2898 40.5979 29.3395 40.6881 29.3994 40.748C29.4594 40.808 29.5296 40.8479 29.5996 40.8779C29.6696 40.9079 29.7396 40.918 29.8096 40.918C29.9294 40.918 30.0292 40.8878 30.1191 40.8379C30.1991 40.7879 30.2693 40.7178 30.3193 40.6279C30.3693 40.538 30.3896 40.438 30.3896 40.3281C30.3896 40.2181 30.3596 40.1173 30.3096 40.0273V40.0576C30.2596 39.9677 30.1893 39.8976 30.1094 39.8477C30.0295 39.7978 29.9397 39.7676 29.8398 39.7676C29.7799 39.7676 29.7199 39.7779 29.6699 39.7979C29.6099 39.8179 29.5595 39.8479 29.5195 39.8779C29.4795 39.908 29.4092 39.998 29.4092 39.998H29.3994C29.3994 39.7782 29.4396 39.618 29.5195 39.498C29.5995 39.378 29.6998 39.3174 29.8398 39.3174C29.9296 39.3174 29.9997 39.3476 30.0596 39.3975C30.1096 39.4575 30.1499 39.5177 30.1699 39.5977H30.3799C30.3699 39.5077 30.34 39.4274 30.29 39.3574C30.2401 39.2875 30.1795 39.2382 30.0996 39.1982C30.0197 39.1583 29.9298 39.1377 29.8398 39.1377ZM41.3398 39.1475C41.2398 39.1475 41.1496 39.168 41.0596 39.208C40.9796 39.248 40.9091 39.3077 40.8691 39.3877C40.8192 39.4677 40.7998 39.5583 40.7998 39.6582H41C41 39.5882 41.01 39.5373 41.04 39.4873C41.0699 39.4377 41.1096 39.3979 41.1592 39.3779C41.2092 39.3479 41.2698 39.3379 41.3398 39.3379C41.3998 39.3379 41.4598 39.348 41.5098 39.3779C41.5597 39.398 41.5999 39.4376 41.6299 39.4775C41.6599 39.5175 41.6699 39.5777 41.6699 39.6377C41.6699 39.6877 41.6596 39.7381 41.6396 39.7881C41.6196 39.838 41.59 39.8883 41.54 39.9482C41.5 39.9982 41.4391 40.0677 41.3691 40.1377L40.79 40.7676V40.918H41.8896V40.7275L41.8994 40.708H41.0898L41.4795 40.2773C41.5794 40.1674 41.66 40.0778 41.71 40.0078C41.7699 39.9279 41.8101 39.8676 41.8301 39.8076C41.85 39.7478 41.8691 39.6879 41.8691 39.6182C41.8691 39.5283 41.8497 39.4479 41.7998 39.3779C41.7598 39.3079 41.6894 39.248 41.6094 39.208C41.5295 39.1681 41.4397 39.1475 41.3398 39.1475ZM2.23926 39.1377C2.13944 39.1377 2.04982 39.1583 1.95996 39.1982C1.87996 39.2382 1.80953 39.2979 1.76953 39.3779C1.71965 39.4578 1.69926 39.5476 1.69922 39.6475H1.89941C1.89944 39.5776 1.9095 39.5275 1.93945 39.4775C1.96941 39.4276 2.00968 39.3882 2.05957 39.3682C2.10949 39.3382 2.16941 39.3282 2.23926 39.3281C2.2992 39.3281 2.35921 39.3382 2.40918 39.3682C2.45912 39.3881 2.49931 39.4278 2.5293 39.4678C2.5593 39.5078 2.56934 39.5679 2.56934 39.6279C2.56931 39.6777 2.55988 39.7276 2.54004 39.7773C2.52005 39.8273 2.48941 39.8775 2.43945 39.9375C2.39945 39.9875 2.33953 40.0579 2.26953 40.1279L1.68945 40.7578V40.9082H2.79004V40.7178H1.97949L2 40.6875L2.38965 40.2676C2.4894 40.1578 2.56914 40.068 2.61914 39.998C2.67908 39.9181 2.71924 39.8578 2.73926 39.7979C2.75926 39.7379 2.76953 39.6774 2.76953 39.6074C2.76948 39.5176 2.74911 39.4381 2.69922 39.3682C2.65927 39.2983 2.58963 39.2382 2.50977 39.1982C2.42977 39.1582 2.33926 39.1377 2.23926 39.1377ZM3.69922 39.1377C3.59941 39.1377 3.50978 39.1583 3.41992 39.1982C3.33992 39.2382 3.26949 39.2979 3.22949 39.3779C3.17962 39.4578 3.15922 39.5477 3.15918 39.6475H3.35938C3.3594 39.5776 3.36946 39.5275 3.39941 39.4775C3.42937 39.4276 3.46965 39.3882 3.51953 39.3682C3.56944 39.3382 3.62939 39.3282 3.69922 39.3281C3.75915 39.3281 3.81917 39.3382 3.86914 39.3682C3.91907 39.3881 3.95927 39.4278 3.98926 39.4678C4.01926 39.5078 4.0293 39.5679 4.0293 39.6279C4.02927 39.6777 4.01985 39.7276 4 39.7773C3.98001 39.8273 3.94938 39.8775 3.89941 39.9375C3.85941 39.9875 3.79949 40.0579 3.72949 40.1279L3.14941 40.7578V40.9082H4.25V40.7178H3.43945L3.45996 40.6875L3.84961 40.2676C3.94957 40.1576 4.03009 40.068 4.08008 39.998C4.13999 39.9182 4.1792 39.8578 4.19922 39.7979C4.21922 39.7379 4.22949 39.6774 4.22949 39.6074C4.22944 39.5176 4.20908 39.4381 4.15918 39.3682C4.11923 39.2982 4.04961 39.2382 3.96973 39.1982C3.88973 39.1582 3.79922 39.1377 3.69922 39.1377ZM21.79 39.1377C21.69 39.1377 21.5998 39.1582 21.5098 39.1982C21.4298 39.2382 21.3593 39.298 21.3193 39.3779C21.2695 39.4578 21.25 39.5477 21.25 39.6475H21.4492C21.4492 39.5776 21.4593 39.5275 21.4893 39.4775C21.5192 39.4276 21.5597 39.3882 21.5996 39.3682C21.6495 39.3382 21.7094 39.3282 21.7793 39.3281C21.8393 39.3281 21.8992 39.3382 21.9492 39.3682C21.9992 39.3881 22.0393 39.4278 22.0693 39.4678C22.0993 39.5078 22.1094 39.5679 22.1094 39.6279C22.1094 39.6777 22.0999 39.7276 22.0801 39.7773C22.0601 39.8273 22.0294 39.8775 21.9795 39.9375C21.9395 39.9875 21.8796 40.0579 21.8096 40.1279L21.2295 40.7578V40.9082H22.3301V40.7178H21.5195L21.5498 40.6875L21.9395 40.2676C22.0394 40.1576 22.1199 40.068 22.1699 39.998C22.2299 39.918 22.27 39.8579 22.29 39.7979C22.31 39.7379 22.3193 39.6774 22.3193 39.6074C22.3193 39.5178 22.2997 39.438 22.25 39.3682C22.21 39.2982 22.1395 39.2382 22.0596 39.1982C21.9797 39.1583 21.8899 39.1378 21.79 39.1377ZM22.8398 39.1475L22.7295 40.0078L22.9297 40.0273C22.9346 40.0243 23.0113 39.9776 23.0693 39.9678C23.1293 39.9478 23.1795 39.9382 23.2295 39.9482C23.2995 39.9482 23.3697 39.968 23.4297 39.998C23.4895 40.028 23.5294 40.0778 23.5693 40.1377C23.5993 40.1977 23.6191 40.2679 23.6191 40.3379C23.6191 40.4078 23.5993 40.4781 23.5693 40.5381C23.5393 40.5979 23.4894 40.6378 23.4395 40.6777C23.3796 40.7076 23.3198 40.7275 23.25 40.7275C23.16 40.7275 23.0795 40.6975 23.0195 40.6475C22.9597 40.5976 22.9193 40.528 22.9092 40.4482H22.71C22.7101 40.538 22.7401 40.6176 22.79 40.6875C22.84 40.7574 22.8996 40.8077 22.9795 40.8477C23.0595 40.8877 23.15 40.9082 23.25 40.9082C23.3598 40.9082 23.4599 40.888 23.5498 40.8281C23.6397 40.7782 23.71 40.7081 23.75 40.6182C23.8 40.5282 23.8301 40.4274 23.8301 40.3174C23.83 40.2075 23.8097 40.1075 23.7598 40.0176C23.7098 39.9276 23.6495 39.8576 23.5596 39.8076V39.8281C23.4796 39.7781 23.3795 39.748 23.2695 39.748C23.2096 39.748 23.1595 39.7474 23.0996 39.7773C23.0497 39.7973 22.9997 39.8177 22.9697 39.8477H22.96L23.0195 39.3379H23.75V39.1475H22.8398ZM28.2998 39.1377C28.1998 39.1377 28.1095 39.1582 28.0195 39.1982C27.9397 39.2382 27.87 39.298 27.8301 39.3779C27.7801 39.4578 27.7598 39.5476 27.7598 39.6475H27.96C27.96 39.5776 27.97 39.5275 28 39.4775C28.0299 39.4279 28.0695 39.3882 28.1191 39.3682C28.1691 39.3382 28.2298 39.3281 28.2998 39.3281C28.3597 39.3281 28.4198 39.3382 28.4697 39.3682C28.5196 39.3882 28.5599 39.4278 28.5898 39.4678C28.6198 39.5078 28.6299 39.568 28.6299 39.6279C28.6299 39.6778 28.6195 39.7275 28.5996 39.7773C28.5796 39.8272 28.5498 39.8777 28.5 39.9375C28.46 39.9875 28.4 40.058 28.3301 40.1279L27.75 40.7578V40.9082H28.8496V40.7178H28.04L28.0596 40.6875L28.4492 40.2676C28.5491 40.1577 28.6297 40.068 28.6797 39.998C28.7397 39.9181 28.7798 39.8578 28.7998 39.7979C28.8198 39.7379 28.8301 39.6774 28.8301 39.6074C28.83 39.5177 28.8095 39.438 28.7598 39.3682C28.7198 39.2982 28.6493 39.2382 28.5693 39.1982C28.4894 39.1583 28.3997 39.1377 28.2998 39.1377ZM34.8193 39.1377C34.7195 39.1377 34.6299 39.1583 34.54 39.1982C34.46 39.2382 34.3896 39.2979 34.3496 39.3779C34.2997 39.4578 34.2793 39.5476 34.2793 39.6475H34.4795C34.4795 39.5776 34.4896 39.5275 34.5195 39.4775C34.5495 39.4276 34.5899 39.3881 34.6299 39.3682C34.6799 39.3382 34.7396 39.3281 34.8096 39.3281C34.8696 39.3281 34.9295 39.3382 34.9795 39.3682C35.0295 39.3882 35.0696 39.4278 35.0996 39.4678C35.1296 39.5078 35.1396 39.5679 35.1396 39.6279C35.1396 39.6778 35.1293 39.7275 35.1094 39.7773C35.0894 39.8273 35.0597 39.8776 35.0098 39.9375C34.9698 39.9875 34.9098 40.0579 34.8398 40.1279L34.2598 40.7578V40.9082H35.3594V40.7178H34.5498L34.5801 40.6875L34.9697 40.2676C35.0695 40.1578 35.1492 40.068 35.1992 39.998C35.2592 39.9181 35.2993 39.8578 35.3193 39.7979C35.3393 39.7379 35.3496 39.6774 35.3496 39.6074C35.3496 39.5176 35.3292 39.438 35.2793 39.3682C35.2394 39.2983 35.1697 39.2382 35.0898 39.1982C35.0098 39.1582 34.9193 39.1377 34.8193 39.1377ZM42.8096 39.1182C42.7097 39.1182 42.6199 39.1379 42.54 39.1777C42.4601 39.2277 42.3996 39.2777 42.3496 39.3477C42.2996 39.4177 42.2793 39.4979 42.2793 39.5879C42.2793 39.6778 42.2996 39.7679 42.3496 39.8379C42.3996 39.9078 42.4698 39.9573 42.5498 39.9873C42.4899 39.9973 42.4298 40.0275 42.3799 40.0674C42.3299 40.1073 42.2898 40.1676 42.2598 40.2275C42.2298 40.2875 42.2197 40.3577 42.2197 40.4277C42.2197 40.5177 42.24 40.6077 42.29 40.6777H42.2793C42.3292 40.7476 42.3994 40.8077 42.4893 40.8477C42.5793 40.8877 42.6798 40.9082 42.7998 40.9082C42.9197 40.9082 43.0195 40.8876 43.1094 40.8477C43.1993 40.8077 43.2693 40.7477 43.3193 40.6777C43.3693 40.6077 43.3994 40.5177 43.3994 40.4277C43.3994 40.3577 43.3796 40.2875 43.3496 40.2275C43.3196 40.1576 43.2794 40.1073 43.2295 40.0674C43.1795 40.0275 43.1195 39.9975 43.0596 39.9775C43.1396 39.9575 43.2098 39.9079 43.2598 39.8379C43.3097 39.7679 43.3398 39.6778 43.3398 39.5879C43.3398 39.4979 43.3195 39.4177 43.2695 39.3477C43.2196 39.2778 43.1599 39.2177 43.0801 39.1777C43.0001 39.1377 42.9096 39.1182 42.8096 39.1182ZM8.75977 39.1377C8.65977 39.1377 8.56949 39.1582 8.47949 39.1982C8.39962 39.2382 8.33 39.298 8.29004 39.3779C8.24009 39.4578 8.21977 39.5476 8.21973 39.6475H8.41992C8.41995 39.5776 8.43 39.5275 8.45996 39.4775C8.48994 39.4277 8.53018 39.3874 8.58008 39.3574C8.62998 39.3277 8.69 39.3174 8.75977 39.3174C8.81968 39.3174 8.87975 39.3275 8.92969 39.3574C8.97969 39.3774 9.0198 39.418 9.0498 39.458C9.07966 39.498 9.08984 39.5583 9.08984 39.6182C9.08979 39.668 9.07948 39.7178 9.05957 39.7676C9.03959 39.8175 9.00987 39.8678 8.95996 39.9277C8.91996 39.9777 8.86003 40.0482 8.79004 40.1182L8.20996 40.748V40.8975H9.30957V40.708H8.5L8.51953 40.6875L8.90918 40.2676C9.0091 40.1577 9.08964 40.068 9.13965 39.998C9.19964 39.9281 9.23976 39.8578 9.25977 39.7979C9.27977 39.7379 9.29004 39.6774 9.29004 39.6074C9.28999 39.5177 9.2695 39.438 9.21973 39.3682C9.17973 39.2982 9.1093 39.2382 9.0293 39.1982C8.94935 39.1583 8.85968 39.1377 8.75977 39.1377ZM15.2695 39.1377C15.1696 39.1377 15.0792 39.1583 14.9893 39.1982C14.9095 39.2382 14.8397 39.2981 14.7998 39.3779C14.7499 39.4578 14.7295 39.5476 14.7295 39.6475H14.9297C14.9297 39.5776 14.9398 39.5275 14.9697 39.4775C14.9997 39.4276 15.0401 39.3874 15.0801 39.3574C15.13 39.3277 15.19 39.3174 15.2598 39.3174C15.3197 39.3174 15.3797 39.3275 15.4297 39.3574C15.4797 39.3774 15.5198 39.418 15.5498 39.458C15.5797 39.498 15.5898 39.5583 15.5898 39.6182C15.5898 39.668 15.5795 39.7178 15.5596 39.7676C15.5396 39.8175 15.5099 39.8678 15.46 39.9277C15.42 39.9777 15.36 40.0482 15.29 40.1182L14.71 40.748V40.8975H15.8096V40.708H15L15.0293 40.6875L15.4199 40.2676C15.5197 40.1578 15.5994 40.068 15.6494 39.998C15.7094 39.9281 15.7495 39.8578 15.7695 39.7979C15.7895 39.7379 15.7998 39.6774 15.7998 39.6074C15.7998 39.5177 15.7793 39.438 15.7295 39.3682C15.6896 39.2983 15.6198 39.2382 15.54 39.1982C15.46 39.1582 15.3695 39.1377 15.2695 39.1377ZM16.8896 39.1582L16.1191 40.3682V40.5381H16.9395V40.8975H17.1396V40.5381H17.3799V40.3477H17.1494V39.1582H16.8896ZM35.6699 39.1475V39.3379H36.5693L35.79 40.8975H36.0098L36.79 39.3477V39.1475H35.6699ZM29.8096 39.9375C29.8796 39.9375 29.94 39.9473 30 39.9873C30.05 40.0173 30.0999 40.068 30.1299 40.1279C30.1598 40.1879 30.1797 40.2582 30.1797 40.3281L30.1895 40.3477C30.1895 40.4177 30.1696 40.4879 30.1396 40.5479C30.0997 40.6077 30.0598 40.6476 30 40.6875C29.95 40.7175 29.8896 40.7373 29.8096 40.7373C29.7296 40.7373 29.6694 40.7177 29.6094 40.6777C29.5594 40.6378 29.5095 40.5873 29.4795 40.5273C29.4496 40.4675 29.4297 40.4077 29.4297 40.3379C29.4297 40.2879 29.44 40.2375 29.46 40.1875C29.48 40.1377 29.5101 40.0975 29.54 40.0576C29.5699 40.0179 29.6095 39.9877 29.6592 39.9678C29.7092 39.9478 29.7596 39.9375 29.8096 39.9375ZM42.8096 40.0879C42.8896 40.0879 42.9498 40.0979 43.0098 40.1279C43.0697 40.1579 43.1194 40.1981 43.1494 40.248C43.1794 40.298 43.1992 40.348 43.1992 40.418C43.1992 40.4779 43.1794 40.5282 43.1494 40.5781C43.1194 40.6279 43.0794 40.6576 43.0195 40.6875C42.9695 40.7175 42.8993 40.7275 42.8193 40.7275C42.7394 40.7275 42.6693 40.7175 42.6094 40.6875C42.5595 40.6576 42.5094 40.6279 42.4795 40.5781C42.4395 40.5382 42.4297 40.4779 42.4297 40.418H42.4199C42.4199 40.358 42.4398 40.298 42.4697 40.248C42.5097 40.1981 42.5495 40.1579 42.6094 40.1279C42.6694 40.0979 42.7296 40.0879 42.8096 40.0879ZM16.9395 39.418V40.3477L16.3496 40.3379L16.9297 39.418H16.9395ZM42.8193 39.3076C42.8892 39.3076 42.9394 39.3277 42.9893 39.3477C43.0293 39.3677 43.0696 39.4082 43.0996 39.4482C43.1294 39.4882 43.1396 39.5379 43.1396 39.5977C43.1396 39.6577 43.1296 39.7178 43.0996 39.7578C43.0696 39.7978 43.0295 39.8374 42.9795 39.8574C42.9295 39.8874 42.8696 39.8975 42.8096 39.8975C42.7496 39.8974 42.6396 39.8574 42.6396 39.8574H42.6592C42.6095 39.8374 42.5699 39.7976 42.54 39.7578C42.51 39.7078 42.5 39.6577 42.5 39.5977C42.5 39.5477 42.5101 39.4882 42.54 39.4482C42.56 39.4083 42.5995 39.3677 42.6494 39.3477C42.6993 39.3177 42.7495 39.3076 42.8193 39.3076ZM7.60938 30.8174V38.5078H1.20996V30.8174H7.60938ZM14.1299 30.8174V38.5078H7.72949V30.8174H14.1299ZM20.6396 30.8174V38.5078H14.2393V30.8174H20.6396ZM27.1494 30.8174V38.5078H20.75V30.8174H27.1494ZM33.6699 30.8174V38.5078H27.2695V30.8174H33.6699ZM40.1797 30.8174V38.5078H33.7793V30.8174H40.1797ZM46.6992 30.8174V38.5078H40.2998V30.8174H46.6992ZM10 31.3379C9.90001 31.3379 9.80949 31.3575 9.72949 31.3975C9.64949 31.4475 9.5893 31.5079 9.5293 31.5879C9.4694 31.6678 9.42938 31.7678 9.39941 31.8877C9.36941 32.0077 9.35938 32.1379 9.35938 32.2979C9.35938 32.4578 9.36919 32.5883 9.40918 32.6982C9.43919 32.7981 9.48987 32.8883 9.5498 32.9482C9.60973 33.0081 9.68013 33.0482 9.75 33.0781C9.81985 33.108 9.89011 33.1182 9.95996 33.1182C10.0797 33.1181 10.1797 33.088 10.2695 33.0381C10.3495 32.9881 10.4197 32.918 10.4697 32.8281C10.5197 32.7381 10.54 32.6373 10.54 32.5273C10.54 32.4175 10.5197 32.3174 10.4697 32.2275V32.2578C10.4197 32.1678 10.3495 32.0979 10.2695 32.0479C10.1896 31.9979 10.0998 31.9679 10 31.9678C9.94012 31.9678 9.88002 31.9781 9.83008 31.998C9.77008 32.018 9.71969 32.0481 9.67969 32.0781C9.63967 32.1082 9.56934 32.1982 9.56934 32.1982H9.55957C9.55957 31.9784 9.59982 31.8182 9.67969 31.6982C9.75969 31.5782 9.86 31.5176 10 31.5176C10.0898 31.5177 10.1598 31.5477 10.2197 31.5977C10.2697 31.6577 10.3101 31.7179 10.3301 31.7979H10.54C10.53 31.7079 10.4992 31.6276 10.4492 31.5576C10.3993 31.4878 10.3397 31.4374 10.2598 31.3975C10.1799 31.3575 10.0998 31.3379 10 31.3379ZM36.2998 31.3174C36.1698 31.3174 36.0597 31.3578 35.9697 31.4277C35.8798 31.4977 35.8098 31.6075 35.7598 31.7373C35.7098 31.8673 35.6895 32.0278 35.6895 32.2178C35.6895 32.4078 35.7098 32.578 35.7598 32.708C35.8098 32.8479 35.8798 32.9476 35.9697 33.0176C36.0597 33.0876 36.1698 33.1182 36.2998 33.1182C36.4297 33.1181 36.5399 33.0875 36.6299 33.0176C36.7197 32.9476 36.7899 32.8378 36.8398 32.708C36.8898 32.568 36.9092 32.4078 36.9092 32.2178C36.9092 32.0278 36.8898 31.8673 36.8398 31.7373C36.7899 31.5976 36.7197 31.4977 36.6299 31.4277C36.5399 31.3578 36.4297 31.3174 36.2998 31.3174ZM22.96 31.3174C22.86 31.3174 22.7695 31.3379 22.6895 31.3779C22.6096 31.4279 22.5499 31.478 22.5 31.5479C22.45 31.6179 22.4297 31.6981 22.4297 31.7881C22.4297 31.878 22.4501 31.9682 22.5 32.0381C22.5499 32.1078 22.6195 32.1575 22.6992 32.1875C22.6393 32.1976 22.5792 32.2277 22.5293 32.2676C22.4793 32.3076 22.4392 32.3678 22.4092 32.4277C22.3792 32.4877 22.3691 32.558 22.3691 32.6279C22.3692 32.7179 22.3895 32.808 22.4395 32.8779C22.4894 32.9479 22.5595 33.0079 22.6494 33.0479C22.7394 33.0879 22.84 33.1074 22.96 33.1074C23.0798 33.1074 23.1796 33.0878 23.2695 33.0479C23.3595 33.0079 23.4295 32.9479 23.4795 32.8779C23.5295 32.808 23.5595 32.7179 23.5596 32.6279C23.5596 32.5579 23.5398 32.4877 23.5098 32.4277H23.5C23.47 32.3578 23.4298 32.3076 23.3799 32.2676C23.33 32.2276 23.2699 32.1977 23.21 32.1777C23.2897 32.1577 23.3593 32.1078 23.4092 32.0381C23.4591 31.9682 23.4892 31.878 23.4893 31.7881C23.4893 31.6982 23.4698 31.6178 23.4199 31.5479C23.3699 31.4779 23.3095 31.4179 23.2295 31.3779C23.1496 31.338 23.0598 31.3174 22.96 31.3174ZM29.4795 31.3174C29.3597 31.3174 29.2598 31.3476 29.1699 31.3975C29.09 31.4474 29.0197 31.5176 28.9697 31.6074C28.9198 31.6973 28.8995 31.7876 28.8994 31.8975C28.8994 32.0075 28.9197 32.1082 28.9697 32.1982C29.0197 32.288 29.09 32.3583 29.1699 32.4082C29.2597 32.458 29.3495 32.4775 29.4492 32.4775C29.509 32.4775 29.5693 32.4681 29.6191 32.4482C29.679 32.4283 29.7296 32.3981 29.7695 32.3682C29.809 32.3385 29.8781 32.2503 29.8799 32.248H29.8896C29.8896 32.4679 29.8495 32.6281 29.7695 32.748C29.6895 32.8679 29.5791 32.9277 29.4492 32.9277C29.3594 32.9276 29.2894 32.8976 29.2295 32.8477C29.1795 32.7977 29.1391 32.7274 29.1191 32.6475H28.9092C28.9192 32.7375 28.95 32.8177 29 32.8877C29.05 32.9576 29.1096 33.0079 29.1895 33.0479C29.2693 33.0878 29.3593 33.1074 29.4492 33.1074C29.5392 33.1074 29.63 33.0879 29.71 33.0479C29.7899 32.9979 29.8592 32.9374 29.9092 32.8574C29.9692 32.7774 30.01 32.6776 30.04 32.5576C30.07 32.4377 30.0801 32.3074 30.0801 32.1475C30.0801 31.9877 30.0692 31.8579 30.0293 31.748V31.7373C29.9993 31.6375 29.9495 31.5472 29.8896 31.4873C29.8297 31.4274 29.7594 31.3874 29.6895 31.3574C29.6195 31.3275 29.5494 31.3174 29.4795 31.3174ZM41.3398 31.3477C41.2398 31.3477 41.1496 31.3682 41.0596 31.4082C40.9797 31.4482 40.9091 31.508 40.8691 31.5879C40.8193 31.6677 40.7999 31.7577 40.7998 31.8574H41C41 31.7876 41.0101 31.7374 41.04 31.6875C41.07 31.6377 41.1094 31.5973 41.1592 31.5674C41.2092 31.5374 41.2698 31.5273 41.3398 31.5273C41.3997 31.5274 41.4598 31.5374 41.5098 31.5674C41.5598 31.5874 41.5999 31.628 41.6299 31.668C41.6597 31.708 41.6699 31.7683 41.6699 31.8281C41.6699 31.8779 41.6595 31.9277 41.6396 31.9775C41.6197 32.0275 41.5899 32.0778 41.54 32.1377C41.5 32.1877 41.4391 32.2581 41.3691 32.3281L40.79 32.958V33.1074H41.8896V32.918L41.8994 32.9082H41.0898L41.4795 32.4775C41.5795 32.3676 41.66 32.278 41.71 32.208C41.77 32.128 41.8101 32.0678 41.8301 32.0078C41.8501 31.9478 41.8691 31.8873 41.8691 31.8174C41.8691 31.7277 41.8496 31.6479 41.7998 31.5781C41.7598 31.5081 41.6894 31.4482 41.6094 31.4082C41.5294 31.3682 41.4397 31.3477 41.3398 31.3477ZM34.8193 31.3379C34.7196 31.3379 34.6298 31.3576 34.54 31.3975C34.46 31.4375 34.3896 31.4981 34.3496 31.5781C34.2997 31.658 34.2793 31.7478 34.2793 31.8477H34.4795C34.4795 31.7777 34.4896 31.7277 34.5195 31.6777C34.5495 31.6277 34.5899 31.5876 34.6299 31.5576C34.6798 31.5277 34.7397 31.5176 34.8096 31.5176C34.8695 31.5176 34.9295 31.5277 34.9795 31.5576C35.0295 31.5776 35.0696 31.6182 35.0996 31.6582C35.1294 31.6981 35.1396 31.7577 35.1396 31.8174C35.1396 31.8674 35.1294 31.9178 35.1094 31.9678C35.0894 32.0177 35.0597 32.068 35.0098 32.1279C34.9698 32.1779 34.9097 32.2475 34.8398 32.3174L34.2598 32.9482V33.0977H35.3594V32.9082H34.5498L34.5801 32.8877L34.9697 32.4678C35.0695 32.3581 35.1492 32.2682 35.1992 32.1982C35.2591 32.1184 35.2993 32.0579 35.3193 31.998C35.3393 31.938 35.3496 31.8776 35.3496 31.8076C35.3496 31.7177 35.3293 31.6373 35.2793 31.5674C35.2393 31.4976 35.1697 31.4374 35.0898 31.3975C35.0098 31.3575 34.9193 31.3379 34.8193 31.3379ZM8.66992 31.3379L8.22949 31.6279V31.8477L8.65918 31.5674H8.66992V33.0879H8.87988V31.3379H8.66992ZM21.6992 31.3379L21.2598 31.6279V31.8477L21.6895 31.5674H21.6992V33.0879H21.9092V31.3379H21.6992ZM28.21 31.3379L27.7695 31.6279V31.8477L28.1992 31.5674H28.21V33.0879H28.4199V31.3379H28.21ZM42.6494 31.3379L42.21 31.6279V31.8379L42.6396 31.5576H42.6494V33.0879H42.8594V31.3379H42.6494ZM2.98926 31.3174L2.87988 32.1777L3.08008 32.1982C3.08359 32.1961 3.16109 32.1475 3.21973 32.1377C3.27967 32.1177 3.32992 32.1082 3.37988 32.1182C3.44979 32.1182 3.52016 32.138 3.58008 32.168C3.63981 32.198 3.67984 32.2478 3.71973 32.3076C3.74973 32.3676 3.76953 32.4378 3.76953 32.5078C3.76952 32.5778 3.74972 32.648 3.71973 32.708C3.68976 32.7678 3.63974 32.8077 3.58984 32.8477C3.52984 32.8777 3.46941 32.8975 3.39941 32.8975C3.30949 32.8974 3.22988 32.8673 3.16992 32.8174C3.11002 32.7675 3.06965 32.698 3.05957 32.6182H2.85938C2.85946 32.7079 2.88966 32.7876 2.93945 32.8574C2.98945 32.9274 3.04988 32.9776 3.12988 33.0176C3.20979 33.0575 3.29955 33.0781 3.39941 33.0781C3.50928 33.0781 3.6093 33.0577 3.69922 33.0078C3.78917 32.9578 3.8594 32.8878 3.89941 32.7979C3.94937 32.7079 3.97944 32.6079 3.97949 32.498C3.97949 32.3881 3.9591 32.2882 3.90918 32.1982V32.208C3.85925 32.1181 3.79975 32.048 3.70996 31.998C3.63004 31.9481 3.5298 31.918 3.41992 31.918C3.35996 31.918 3.30995 31.9183 3.25 31.9482C3.2 31.9682 3.14914 31.9876 3.11914 32.0176H3.10938L3.16992 31.5078H3.89941V31.3174H2.98926ZM15.8301 31.3174V31.5078H16.7295L15.9492 33.0674H16.1699L16.9492 31.5176V31.3174H15.8301ZM2.14941 31.3076L1.70996 31.5977V31.8174L2.13965 31.5381H2.14941V33.0576H2.35938V31.3076H2.14941ZM15.1797 31.3076L14.7393 31.5977V31.8174L15.1699 31.5381H15.1797V33.0576H15.3896V31.3076H15.1797ZM9.96973 32.1377C10.0395 32.1377 10.0994 32.1478 10.1592 32.1875C10.2092 32.2175 10.26 32.2681 10.29 32.3281C10.3199 32.3879 10.3398 32.4577 10.3398 32.5273L10.3496 32.5479C10.3496 32.6178 10.3298 32.6881 10.2998 32.748C10.2598 32.808 10.2191 32.8477 10.1592 32.8877C10.1093 32.9176 10.0495 32.9375 9.96973 32.9375C9.88974 32.9375 9.82952 32.9179 9.76953 32.8779C9.71953 32.8379 9.66965 32.7875 9.63965 32.7275C9.60974 32.6677 9.5899 32.6079 9.58984 32.5381C9.58984 32.4881 9.59917 32.4377 9.61914 32.3877C9.6391 32.3378 9.66927 32.2977 9.69922 32.2578C9.72916 32.2179 9.76948 32.188 9.81934 32.168C9.86934 32.148 9.91973 32.1377 9.96973 32.1377ZM36.2998 31.5078C36.3897 31.5078 36.4596 31.5279 36.5195 31.5879C36.5795 31.6379 36.6292 31.7181 36.6592 31.8281C36.6891 31.9381 36.71 32.0679 36.71 32.2178V32.2275C36.71 32.4575 36.6696 32.6378 36.5996 32.7578C36.5296 32.8777 36.4297 32.9374 36.2998 32.9375C36.2098 32.9375 36.1401 32.9174 36.0801 32.8574C36.0201 32.8075 35.9695 32.728 35.9395 32.6182C35.9095 32.5082 35.8896 32.3775 35.8896 32.2275C35.8897 31.9978 35.9301 31.8182 36 31.6982C36.08 31.5682 36.1698 31.5078 36.2998 31.5078ZM22.96 32.2881C23.0397 32.2881 23.0993 32.2982 23.1592 32.3281C23.2192 32.3581 23.2698 32.3982 23.2998 32.4482C23.3297 32.4981 23.3496 32.5484 23.3496 32.6182H23.3398C23.3398 32.6778 23.3198 32.7276 23.29 32.7773C23.26 32.8273 23.2192 32.8577 23.1592 32.8877C23.1093 32.9175 23.0397 32.9277 22.96 32.9277C22.8801 32.9277 22.8099 32.9176 22.75 32.8877C22.7 32.8577 22.6491 32.8273 22.6191 32.7773C22.5796 32.7374 22.5694 32.6778 22.5693 32.6182C22.5693 32.5584 22.5893 32.4981 22.6191 32.4482C22.6591 32.3982 22.6998 32.3581 22.7598 32.3281C22.8198 32.2981 22.88 32.2881 22.96 32.2881ZM29.4795 31.5078C29.5495 31.5078 29.6099 31.5274 29.6699 31.5674C29.7199 31.5974 29.7698 31.648 29.7998 31.708C29.829 31.7664 29.8477 31.8249 29.8486 31.8926C29.848 31.941 29.8387 31.9897 29.8193 32.0381C29.7994 32.0879 29.7792 32.1281 29.7393 32.168C29.7093 32.2078 29.669 32.2379 29.6191 32.2578C29.5693 32.2777 29.5195 32.2881 29.4697 32.2881C29.3997 32.2881 29.3393 32.2673 29.2793 32.2373C29.2294 32.2073 29.1793 32.1575 29.1494 32.0977C29.1195 32.0377 29.0996 31.9674 29.0996 31.8975C29.0997 31.8277 29.1196 31.7581 29.1494 31.6982C29.1894 31.6382 29.23 31.5976 29.29 31.5576C29.34 31.5278 29.4097 31.5078 29.4795 31.5078ZM22.9795 31.5078C23.0494 31.5078 23.0995 31.5279 23.1494 31.5479C23.1894 31.5678 23.2298 31.6075 23.2598 31.6475C23.2898 31.6875 23.2998 31.7379 23.2998 31.7979C23.2998 31.8578 23.2898 31.918 23.2598 31.958C23.2298 31.998 23.1896 32.0376 23.1396 32.0576C23.0897 32.0876 23.0297 32.0976 22.9697 32.0977C22.9109 32.0977 22.804 32.0591 22.7998 32.0576H22.8193C22.7695 32.0376 22.7292 31.9979 22.6992 31.958C22.6692 31.908 22.6592 31.8578 22.6592 31.7979C22.6592 31.7479 22.6692 31.6875 22.6992 31.6475C22.7192 31.6075 22.7596 31.5678 22.8096 31.5479C22.8595 31.5179 22.9096 31.5078 22.9795 31.5078ZM7.60938 23.0176V30.708H1.20996V23.0176H7.60938ZM14.1299 23.0176V30.708H7.72949V23.0176H14.1299ZM20.6396 23.0176V30.708H14.2393V23.0176H20.6396ZM27.1592 23.0176V30.708H20.7598V23.0176H27.1592ZM33.6699 23.0176V30.708H27.2695V23.0176H33.6699ZM40.1797 23.0176V30.708H33.7793V23.0176H40.1797ZM46.6992 23.0176V30.708H40.2998V23.0176H46.6992ZM16.4697 23.5176C16.3397 23.5176 16.2296 23.5579 16.1396 23.6279C16.0497 23.6979 15.9797 23.8076 15.9297 23.9375C15.8797 24.0675 15.8594 24.228 15.8594 24.418C15.8594 24.6079 15.8797 24.7782 15.9297 24.9082C15.9797 25.048 16.0497 25.1478 16.1396 25.2178C16.2296 25.2878 16.3397 25.3174 16.4697 25.3174C16.5997 25.3174 16.7098 25.2878 16.7998 25.2178C16.8897 25.1478 16.9598 25.038 17.0098 24.9082C17.0597 24.7683 17.0801 24.6079 17.0801 24.418C17.0801 24.228 17.0598 24.0675 17.0098 23.9375C16.9598 23.7977 16.8897 23.6979 16.7998 23.6279C16.7098 23.558 16.5997 23.5176 16.4697 23.5176ZM36.04 23.5176C35.94 23.5176 35.8498 23.5381 35.7598 23.5781C35.6799 23.6181 35.6096 23.6675 35.5596 23.7373C35.5096 23.8072 35.4795 23.8876 35.4795 23.9775H35.6797C35.6797 23.9178 35.6996 23.868 35.7295 23.8281C35.7595 23.7881 35.8094 23.7573 35.8594 23.7373C35.9093 23.7173 35.9694 23.708 36.0293 23.708C36.0892 23.708 36.1493 23.7181 36.1992 23.748C36.2492 23.768 36.2796 23.8077 36.3096 23.8477C36.3396 23.8877 36.3496 23.948 36.3496 23.998C36.3495 24.048 36.3297 24.1083 36.2998 24.1582C36.2698 24.208 36.2295 24.2377 36.1797 24.2676C36.1298 24.2875 36.0698 24.3075 36 24.3076H35.8594V24.498H36C36.0898 24.4981 36.1598 24.5081 36.2197 24.5381C36.2796 24.5681 36.3294 24.6083 36.3594 24.6582C36.3893 24.7082 36.4092 24.7682 36.4092 24.8281C36.4091 24.8879 36.3892 24.9474 36.3594 24.9873C36.3294 25.0373 36.2797 25.0677 36.2197 25.0977V25.0879C36.1597 25.1179 36.0995 25.1279 36.0195 25.1279C35.9496 25.1279 35.8898 25.1176 35.8398 25.0977C35.7899 25.0777 35.74 25.0477 35.71 25.0078C35.68 24.9678 35.6594 24.9174 35.6494 24.8574H35.4395C35.4395 24.9474 35.4696 25.0277 35.5195 25.0977C35.5695 25.1676 35.6395 25.2178 35.7295 25.2578C35.8194 25.2978 35.9194 25.3173 36.0293 25.3174C36.1393 25.3174 36.2401 25.2978 36.3301 25.2578C36.4199 25.2178 36.4901 25.158 36.54 25.0781C36.59 24.9981 36.6191 24.9174 36.6191 24.8174C36.6191 24.7076 36.5892 24.618 36.5293 24.5381C36.4693 24.4581 36.3795 24.4175 36.2695 24.3975C36.3595 24.3575 36.4295 24.3073 36.4795 24.2373C36.5294 24.1674 36.5596 24.0872 36.5596 23.9873C36.5595 23.9075 36.5398 23.8276 36.5 23.7578C36.46 23.6878 36.3993 23.6279 36.3193 23.5879C36.2395 23.548 36.1498 23.5177 36.04 23.5176ZM2.2998 23.5176C2.1998 23.5176 2.1093 23.5381 2.0293 23.5781C1.94949 23.628 1.88976 23.6782 1.83984 23.748C1.78997 23.8179 1.7696 23.8975 1.76953 23.9873C1.76953 24.0772 1.78994 24.1673 1.83984 24.2373C1.88984 24.3073 1.96004 24.3577 2.04004 24.3877C1.98004 24.3977 1.91914 24.4278 1.86914 24.4678C1.81928 24.5078 1.77994 24.5681 1.75 24.6279C1.72 24.6879 1.70996 24.7581 1.70996 24.8281C1.71001 24.918 1.72936 25.0082 1.7793 25.0781C1.82926 25.148 1.89939 25.2081 1.98926 25.248C2.07926 25.288 2.1798 25.3076 2.2998 25.3076C2.41958 25.3076 2.5195 25.2879 2.60938 25.248C2.69922 25.2081 2.76935 25.148 2.81934 25.0781C2.86927 25.0082 2.89933 24.918 2.89941 24.8281C2.89941 24.7582 2.87957 24.6879 2.84961 24.6279H2.83984C2.80986 24.558 2.76969 24.5078 2.71973 24.4678C2.66979 24.4278 2.60973 24.3979 2.5498 24.3779C2.62974 24.3579 2.70003 24.3073 2.75 24.2373C2.79979 24.1674 2.83008 24.0771 2.83008 23.9873C2.83001 23.8976 2.80954 23.8179 2.75977 23.748C2.70977 23.678 2.64934 23.6181 2.56934 23.5781C2.48941 23.5382 2.3997 23.5176 2.2998 23.5176ZM8.80957 23.5273C8.68979 23.5273 8.58988 23.5576 8.5 23.6074C8.42011 23.6574 8.34979 23.7276 8.2998 23.8174C8.24986 23.9073 8.22953 23.9976 8.22949 24.1074C8.22949 24.2174 8.2498 24.3182 8.2998 24.4082V24.3975C8.3498 24.4875 8.42 24.5574 8.5 24.6074C8.58986 24.6573 8.67948 24.6777 8.7793 24.6777C8.8392 24.6777 8.89927 24.6674 8.94922 24.6475C9.00922 24.6275 9.05961 24.5974 9.09961 24.5674C9.13876 24.5379 9.20702 24.452 9.20996 24.4482H9.21973C9.21967 24.668 9.17955 24.8283 9.09961 24.9482C9.01963 25.068 8.90918 25.1279 8.7793 25.1279C8.68946 25.1279 8.6195 25.0978 8.55957 25.0479C8.50957 24.9979 8.46922 24.9277 8.44922 24.8477H8.23926C8.24926 24.9377 8.28008 25.0179 8.33008 25.0879C8.38003 25.1577 8.43965 25.2081 8.51953 25.248C8.59943 25.288 8.68942 25.3076 8.7793 25.3076C8.8693 25.3076 8.96004 25.288 9.04004 25.248C9.11995 25.1981 9.1893 25.1375 9.23926 25.0576C9.29923 24.9777 9.33914 24.8777 9.36914 24.7578C9.39914 24.6378 9.40918 24.5077 9.40918 24.3477C9.40917 24.1879 9.39926 24.0581 9.35938 23.9482C9.32942 23.8484 9.27959 23.7582 9.21973 23.6982C9.15973 23.6382 9.08953 23.5974 9.01953 23.5674C8.9496 23.5375 8.8795 23.5273 8.80957 23.5273ZM29.46 23.5479C29.36 23.5479 29.2696 23.5675 29.1797 23.6074C29.0997 23.6474 29.0293 23.7081 28.9893 23.7881C28.9395 23.8679 28.9199 23.9578 28.9199 24.0576H29.1191C29.1192 23.9878 29.1293 23.9376 29.1592 23.8877C29.1891 23.8377 29.2294 23.7976 29.2793 23.7676C29.3293 23.7376 29.39 23.7275 29.46 23.7275C29.5198 23.7276 29.58 23.7376 29.6299 23.7676C29.6798 23.7876 29.72 23.8282 29.75 23.8682C29.7797 23.9081 29.79 23.9677 29.79 24.0273C29.79 24.0773 29.7797 24.1278 29.7598 24.1777C29.7398 24.2277 29.7092 24.2779 29.6592 24.3379C29.6192 24.3879 29.5591 24.4575 29.4893 24.5273L28.9092 25.1582V25.3076H30.0098V25.1182L30.0195 25.1074H29.21L29.5996 24.6777C29.6996 24.5678 29.7801 24.4782 29.8301 24.4082C29.89 24.3383 29.9292 24.2679 29.9492 24.208C29.9692 24.148 29.9893 24.0876 29.9893 24.0176C29.9892 23.9277 29.9699 23.8473 29.9199 23.7773C29.8799 23.7074 29.8094 23.6474 29.7295 23.6074C29.6496 23.5675 29.5597 23.5479 29.46 23.5479ZM15.1797 23.5381L14.7393 23.8281V24.0381L15.1699 23.7578V23.7676H15.1797V25.2881H15.3896V23.5381H15.1797ZM28.21 23.5381L27.7695 23.8281V24.0381L28.1992 23.7578H28.21V25.2881H28.4199V23.5381H28.21ZM34.7197 23.5381L34.2793 23.8281V24.0381L34.71 23.7578H34.7197V25.2881H34.9297V23.5381H34.7197ZM42.6797 23.5273L41.9092 24.7373V24.9082H42.7295L42.7393 24.918V25.2773H42.9395V24.918H43.1797V24.7275H42.9395V23.5273H42.6797ZM21.6895 23.5176L21.25 23.8076V24.0176L21.6797 23.7373H21.6895V25.2676H21.8994V23.5176H21.6895ZM22.8096 23.5176L22.3691 23.8076V24.0176L22.7998 23.7373H22.8096V25.2676H23.0195V23.5176H22.8096ZM41.2393 23.5176L40.7998 23.8076V24.0176L41.2295 23.7373H41.2393V25.2676H41.4492V23.5176H41.2393ZM2.2998 24.4873C2.37971 24.4873 2.44005 24.4974 2.5 24.5273C2.55985 24.5573 2.60966 24.5976 2.63965 24.6475C2.66959 24.6974 2.68938 24.7476 2.68945 24.8174H2.67969C2.67969 24.8773 2.65979 24.9276 2.62988 24.9775C2.59993 25.0275 2.54992 25.0579 2.5 25.0879C2.45004 25.1179 2.37972 25.1279 2.2998 25.1279C2.21991 25.1279 2.14979 25.1178 2.08984 25.0879C2.03984 25.0579 1.98996 25.0275 1.95996 24.9775C1.91996 24.9375 1.90918 24.8774 1.90918 24.8174C1.90926 24.7575 1.93002 24.6974 1.95996 24.6475C1.99987 24.5976 2.03975 24.5573 2.09961 24.5273C2.15955 24.4974 2.21988 24.4873 2.2998 24.4873ZM16.4697 23.708C16.5597 23.708 16.6295 23.7281 16.6895 23.7881C16.7494 23.838 16.8001 23.9175 16.8301 24.0273C16.8601 24.1373 16.8799 24.268 16.8799 24.418C16.8799 24.6479 16.8395 24.8283 16.7695 24.9482C16.6996 25.0679 16.5995 25.1279 16.4697 25.1279C16.3798 25.1279 16.3099 25.1077 16.25 25.0479C16.19 24.9979 16.1394 24.9176 16.1094 24.8076C16.0944 24.7527 16.082 24.6928 16.0732 24.6279L16.0596 24.418C16.0607 24.1926 16.1009 24.0158 16.1699 23.8975C16.2499 23.7677 16.3398 23.708 16.4697 23.708ZM42.7295 23.7881V24.7178L42.1396 24.708L42.7197 23.7881H42.7295ZM8.80957 23.708C8.87957 23.708 8.94 23.7276 9 23.7676C9.04993 23.7976 9.09992 23.8483 9.12988 23.9082C9.15974 23.968 9.17967 24.0279 9.17969 24.0977C9.17969 24.1477 9.16941 24.198 9.14941 24.248C9.12946 24.2979 9.10925 24.338 9.06934 24.3779C9.03936 24.4178 8.99912 24.4478 8.94922 24.4678C8.8994 24.4877 8.84963 24.498 8.7998 24.498C8.72981 24.498 8.66937 24.4782 8.60938 24.4482C8.55937 24.4182 8.50949 24.3676 8.47949 24.3076C8.44954 24.2477 8.42969 24.1774 8.42969 24.1074V24.0977C8.42971 24.0277 8.44951 23.9574 8.47949 23.8975C8.51938 23.8377 8.55939 23.7977 8.61914 23.7578C8.66913 23.7278 8.73958 23.708 8.80957 23.708ZM2.31934 23.708C2.38924 23.708 2.43933 23.7281 2.48926 23.748C2.52923 23.768 2.56962 23.8077 2.59961 23.8477C2.62961 23.8877 2.63965 23.938 2.63965 23.998C2.63962 24.058 2.62956 24.1183 2.59961 24.1582C2.56963 24.1981 2.52938 24.2379 2.47949 24.2578C2.42951 24.2878 2.36953 24.2979 2.30957 24.2979C2.2503 24.2978 2.14231 24.2588 2.13965 24.2578H2.15918C2.10955 24.2378 2.06993 24.1979 2.04004 24.1582C2.01009 24.1083 2.00003 24.0579 2 23.998C2 23.948 2.01004 23.8877 2.04004 23.8477C2.06005 23.8078 2.09965 23.768 2.14941 23.748C2.19935 23.7181 2.24948 23.708 2.31934 23.708ZM7.60938 15.2178V22.9082H1.20996V15.2178H7.60938ZM14.1299 15.2178V22.9082H7.72949V15.2178H14.1299ZM20.6396 15.2178V22.9082H14.2393V15.2178H20.6396ZM27.1592 15.2178V22.9082H20.7598V15.2178H27.1592ZM33.6699 15.2178V22.9082H27.2695V15.2178H33.6699ZM40.1797 15.2178V22.9082H33.7793V15.2178H40.1797ZM46.6992 15.2178V22.9082H40.2998V15.2178H46.6992ZM34.9199 15.7275C34.8299 15.7275 34.7392 15.7481 34.6592 15.7881C34.5795 15.838 34.5198 15.8978 34.46 15.9775C34.4 16.0574 34.3601 16.1576 34.3301 16.2773C34.3001 16.3973 34.2901 16.5276 34.29 16.6875C34.29 16.8475 34.2998 16.9779 34.3398 17.0879V17.1182C34.3699 17.218 34.4196 17.3083 34.4795 17.3682C34.5395 17.4281 34.6097 17.4681 34.6797 17.498C34.7496 17.528 34.8197 17.5381 34.8896 17.5381C35.0095 17.5381 35.1093 17.5079 35.1992 17.458C35.2791 17.4081 35.3494 17.3379 35.3994 17.248C35.4493 17.1582 35.4697 17.0581 35.4697 16.9482C35.4697 16.8382 35.4396 16.7375 35.3896 16.6475C35.3397 16.5576 35.2694 16.4875 35.1895 16.4375C35.1096 16.3876 35.0197 16.3575 34.9199 16.3574C34.8601 16.3574 34.7999 16.3678 34.75 16.3877C34.69 16.4077 34.6396 16.4378 34.5996 16.4678C34.5596 16.4978 34.4893 16.5879 34.4893 16.5879H34.4795C34.4795 16.3679 34.5196 16.2079 34.5996 16.0879C34.6796 15.9679 34.7799 15.9082 34.9199 15.9082C35.0097 15.9082 35.0897 15.9276 35.1396 15.9873C35.1896 16.0473 35.23 16.1076 35.25 16.1875H35.46C35.4499 16.0976 35.4191 16.0182 35.3691 15.9482C35.3192 15.8783 35.2596 15.8281 35.1797 15.7881C35.0998 15.7481 35.0098 15.7276 34.9199 15.7275ZM15.3496 15.7178C15.2496 15.7178 15.1593 15.7373 15.0693 15.7773C14.9894 15.8173 14.9191 15.8675 14.8691 15.9375C14.8192 16.0075 14.79 16.0878 14.79 16.1777H14.9893C14.9893 16.1177 15.01 16.0673 15.04 16.0273C15.0701 15.9876 15.1201 15.9574 15.1699 15.9375C15.2198 15.9176 15.28 15.9082 15.3398 15.9082C15.3998 15.9082 15.4598 15.9183 15.5098 15.9482C15.5595 15.9683 15.5892 16.008 15.6191 16.0479C15.6491 16.0879 15.6592 16.1482 15.6592 16.1982C15.6591 16.2481 15.6392 16.3076 15.6094 16.3574C15.5794 16.4074 15.5393 16.4378 15.4893 16.4678C15.4393 16.4977 15.3794 16.5078 15.3096 16.5078H15.1699V16.6982H15.3096C15.3996 16.6982 15.47 16.7073 15.54 16.7373C15.5999 16.7673 15.6497 16.8076 15.6797 16.8574C15.7096 16.9073 15.7294 16.9675 15.7295 17.0273C15.7295 17.0872 15.7096 17.1475 15.6797 17.1875C15.6497 17.2374 15.5999 17.2679 15.54 17.2979L15.5293 17.2881C15.4695 17.3179 15.4097 17.3281 15.3301 17.3281C15.2601 17.3281 15.1994 17.3179 15.1494 17.2979C15.0896 17.2779 15.0495 17.2479 15.0195 17.208C14.9895 17.168 14.97 17.1176 14.96 17.0576H14.75C14.75 17.1476 14.7801 17.2279 14.8301 17.2979C14.8801 17.3677 14.9502 17.4181 15.04 17.458C15.1299 17.4979 15.23 17.5176 15.3398 17.5176C15.4497 17.5175 15.5497 17.498 15.6396 17.458C15.7296 17.418 15.7996 17.3573 15.8496 17.2773C15.8995 17.1974 15.9297 17.1175 15.9297 17.0176C15.9297 16.9077 15.8998 16.8173 15.8398 16.7373C15.7799 16.6575 15.6898 16.6177 15.5801 16.5977C15.6699 16.5577 15.7401 16.5074 15.79 16.4375C15.8399 16.3676 15.8691 16.2873 15.8691 16.1875C15.8691 16.1077 15.8495 16.0279 15.8096 15.958C15.7696 15.8881 15.7097 15.8281 15.6299 15.7881C15.5499 15.7481 15.4596 15.7178 15.3496 15.7178ZM8.75977 15.748C8.65977 15.748 8.56949 15.7676 8.47949 15.8076C8.39969 15.8475 8.33008 15.9076 8.29004 15.9873C8.24004 16.0673 8.21973 16.1578 8.21973 16.2578H8.41992C8.41992 16.1878 8.42996 16.1379 8.45996 16.0879C8.48996 16.0379 8.5301 15.9978 8.58008 15.9678C8.63001 15.9379 8.68992 15.9277 8.75977 15.9277C8.81971 15.9278 8.87973 15.9378 8.92969 15.9678C8.97959 15.9878 9.01983 16.0275 9.0498 16.0674C9.07977 16.1073 9.08982 16.1676 9.08984 16.2275C9.08984 16.2775 9.07957 16.3279 9.05957 16.3779C9.03957 16.4279 9.00991 16.4781 8.95996 16.5381C8.92002 16.588 8.85989 16.6577 8.79004 16.7275L8.20996 17.3574V17.5078H9.30957V17.3174L9.33008 17.3076H8.51953L8.90918 16.8779C9.00918 16.7679 9.08965 16.6774 9.13965 16.6074C9.19943 16.5277 9.23975 16.468 9.25977 16.4082C9.27977 16.3482 9.29004 16.2878 9.29004 16.2178C9.29004 16.1278 9.26973 16.0475 9.21973 15.9775C9.17972 15.9076 9.10925 15.8476 9.0293 15.8076C8.94942 15.7677 8.85957 15.7481 8.75977 15.748ZM27.8994 15.708L27.79 16.5674L27.9893 16.5879C27.9893 16.5879 28.0699 16.5373 28.1299 16.5273C28.1897 16.5074 28.2401 16.4978 28.29 16.5078C28.3598 16.5079 28.4295 16.5278 28.4893 16.5576C28.5493 16.5876 28.5899 16.6382 28.6299 16.6982C28.6597 16.758 28.6796 16.8278 28.6797 16.8975C28.6797 16.9674 28.6598 17.0377 28.6299 17.0977C28.6 17.1575 28.5498 17.1974 28.5 17.2373V17.2578C28.44 17.2878 28.3796 17.3076 28.3096 17.3076C28.2197 17.3076 28.1401 17.2774 28.0801 17.2275C28.0201 17.1775 27.9797 17.1073 27.9697 17.0273H27.7695C27.7695 17.1173 27.7997 17.1976 27.8496 17.2676C27.8996 17.3376 27.96 17.3877 28.04 17.4277C28.1199 17.4676 28.2097 17.4873 28.3096 17.4873C28.4194 17.4873 28.5195 17.4581 28.6094 17.4082C28.6992 17.3583 28.7695 17.288 28.8096 17.1982C28.8596 17.1082 28.8896 17.0075 28.8896 16.8975C28.8896 16.7876 28.8693 16.6876 28.8193 16.5977C28.7694 16.5078 28.7091 16.4377 28.6191 16.3877C28.5393 16.3379 28.4397 16.3077 28.3301 16.3076C28.2701 16.3076 28.2192 16.3079 28.1592 16.3379C28.1093 16.3578 28.0592 16.3783 28.0293 16.4082H28.0195L28.0801 15.8975H28.8096V15.708H27.8994ZM22.0293 15.7275L21.2598 16.9375V17.1074H22.0801L22.0898 17.1182V17.4775H22.29V17.1182H22.5293V16.9277H22.29V15.7275H22.0293ZM40.7998 15.7178V15.9082H41.6992V15.9277L40.9199 17.4678H41.1396L41.9199 15.918V15.7178H40.7998ZM2.14941 15.708V15.7178L1.70996 16.0078V16.2178L2.13965 15.9375H2.14941V17.458H2.35938V15.708H2.14941ZM34.8994 16.5576C34.9694 16.5576 35.0298 16.5674 35.0898 16.6074C35.1398 16.6374 35.1897 16.6881 35.2197 16.748C35.2496 16.808 35.2695 16.8783 35.2695 16.9482C35.2694 17.018 35.2496 17.0877 35.2197 17.1475C35.1798 17.2074 35.14 17.2481 35.0801 17.2881C35.0301 17.3181 34.9696 17.3379 34.8896 17.3379C34.8096 17.3379 34.7495 17.3173 34.6895 17.2773C34.6396 17.2374 34.5895 17.1878 34.5596 17.1279C34.5296 17.0679 34.5098 17.0075 34.5098 16.9375L34.5195 16.958C34.5195 16.908 34.5298 16.8576 34.5498 16.8076C34.5698 16.7577 34.5999 16.7177 34.6299 16.6777C34.6599 16.6378 34.7001 16.6079 34.75 16.5879C34.7998 16.568 34.8496 16.5576 34.8994 16.5576ZM22.0801 15.9873V16.918L21.4893 16.9082L22.0693 15.9873H22.0801ZM7.60938 10.5674V15.1074H1.20996V10.5674H7.60938ZM14.1299 10.5674V15.1074H7.72949V10.5674H14.1299ZM20.6396 10.5674V15.1074H14.2393V10.5674H20.6396ZM27.1494 10.5674V15.1074H20.75V10.5674H27.1494ZM33.6699 10.5674V15.1074H27.2695V10.5674H33.6699ZM40.1797 10.5674V15.1074H33.7793V10.5674H40.1797ZM46.6992 10.5674V15.1074H40.2998V10.5674H46.6992ZM3.06934 12.1377C2.98954 12.1377 2.90969 12.1576 2.83984 12.1875C2.77002 12.2174 2.70992 12.2675 2.66992 12.3174C2.62995 12.3773 2.60941 12.4377 2.60938 12.5176C2.60938 12.6074 2.6395 12.6774 2.69922 12.7373C2.75917 12.7973 2.84932 12.8382 2.94922 12.8682L3.11914 12.918C3.11914 12.918 3.21 12.9478 3.25 12.9678C3.28984 12.9877 3.31969 13.0082 3.34961 13.0381C3.37942 13.068 3.38961 13.0977 3.38965 13.1475C3.38965 13.1973 3.37945 13.2374 3.34961 13.2773C3.31961 13.3173 3.27949 13.3482 3.22949 13.3682C3.17954 13.3881 3.11947 13.3975 3.05957 13.3975C3.00958 13.3975 2.95917 13.3979 2.90918 13.3779C2.85938 13.358 2.82973 13.3375 2.7998 13.3076C2.7698 13.2776 2.75 13.2277 2.75 13.1777H2.58008C2.58008 13.2477 2.60941 13.3182 2.64941 13.3682C2.68939 13.428 2.74946 13.4681 2.81934 13.498C2.88927 13.528 2.96946 13.5478 3.06934 13.5479C3.16934 13.5479 3.26008 13.528 3.33008 13.498C3.39995 13.468 3.46006 13.4173 3.5 13.3574C3.53973 13.2976 3.55949 13.2279 3.55957 13.1582C3.55957 13.0983 3.54945 13.038 3.51953 12.998C3.48957 12.9581 3.45984 12.9177 3.41992 12.8877L3.39941 12.8779C3.39683 12.8763 3.31863 12.8273 3.2793 12.8076C3.2394 12.7877 3.19908 12.7776 3.15918 12.7676L3.01953 12.7275C3.01657 12.7264 2.96851 12.7079 2.93945 12.6982C2.90952 12.6883 2.87954 12.6781 2.84961 12.6582C2.81961 12.6382 2.7993 12.6177 2.7793 12.5977C2.7594 12.5677 2.75001 12.5377 2.75 12.5078C2.75 12.4678 2.76004 12.4277 2.79004 12.3877C2.81996 12.3578 2.84976 12.3276 2.88965 12.3076C2.92965 12.2876 2.98985 12.2773 3.0498 12.2773C3.12972 12.2774 3.19981 12.2979 3.25977 12.3379C3.31965 12.3779 3.34938 12.4281 3.35938 12.498H3.51953C3.51953 12.428 3.49996 12.3674 3.45996 12.3174C3.41998 12.2674 3.36974 12.2175 3.2998 12.1875C3.2298 12.1575 3.14934 12.1377 3.06934 12.1377ZM42.3594 12.1377C42.2796 12.1377 42.1997 12.1576 42.1299 12.1875C42.0601 12.2174 42 12.2675 41.96 12.3174C41.92 12.3773 41.8994 12.4377 41.8994 12.5176C41.8994 12.6074 41.9295 12.6774 41.9893 12.7373C42.0492 12.7973 42.1393 12.8382 42.2393 12.8682L42.4092 12.918C42.4092 12.918 42.5 12.9478 42.54 12.9678C42.5799 12.9877 42.6097 13.0082 42.6396 13.0381C42.6694 13.068 42.6796 13.0977 42.6797 13.1475C42.6797 13.1973 42.6695 13.2374 42.6396 13.2773C42.6096 13.3173 42.5695 13.3482 42.5195 13.3682C42.4696 13.3881 42.4095 13.3975 42.3496 13.3975C42.2996 13.3975 42.2492 13.3979 42.1992 13.3779C42.1495 13.358 42.1199 13.3375 42.0801 13.3076C42.0501 13.2776 42.0293 13.2277 42.0293 13.1777H41.8594C41.8594 13.2477 41.8897 13.3182 41.9297 13.3682C41.9697 13.428 42.0297 13.4681 42.0996 13.498C42.1696 13.528 42.2497 13.5479 42.3496 13.5479C42.4495 13.5479 42.5394 13.528 42.6094 13.498C42.6794 13.468 42.7393 13.4174 42.7793 13.3574C42.8192 13.2976 42.8398 13.228 42.8398 13.1582C42.8398 13.0983 42.8296 13.038 42.7998 12.998C42.7698 12.958 42.7392 12.9177 42.6992 12.8877L42.6895 12.8779C42.6875 12.8767 42.6088 12.8274 42.5693 12.8076C42.5294 12.7877 42.4891 12.7776 42.4492 12.7676L42.3096 12.7275C42.307 12.7265 42.2587 12.708 42.2295 12.6982C42.1996 12.6883 42.1696 12.6781 42.1396 12.6582C42.1096 12.6382 42.0893 12.6177 42.0693 12.5977C42.0494 12.5677 42.0401 12.5377 42.04 12.5078C42.04 12.4678 42.0501 12.4277 42.0801 12.3877C42.11 12.3578 42.1398 12.3276 42.1797 12.3076C42.2197 12.2877 42.2799 12.2773 42.3398 12.2773C42.4197 12.2774 42.4899 12.2979 42.5498 12.3379C42.6097 12.3779 42.6394 12.4281 42.6494 12.498H42.8096C42.8096 12.428 42.79 12.3674 42.75 12.3174C42.71 12.2674 42.6598 12.2175 42.5898 12.1875C42.5198 12.1575 42.4394 12.1377 42.3594 12.1377ZM3.83984 12.1582V13.0576C3.83984 13.1475 3.85949 13.2376 3.89941 13.3076C3.93941 13.3776 4.00008 13.4375 4.08008 13.4775C4.15995 13.5174 4.24961 13.5381 4.35938 13.5381C4.46938 13.5381 4.55965 13.5175 4.63965 13.4775C4.71958 13.4375 4.77936 13.3776 4.81934 13.3076C4.85934 13.2376 4.88965 13.1476 4.88965 13.0576V12.1582H4.72949V13.0381H4.69922C4.69919 13.1079 4.68913 13.1579 4.65918 13.2178C4.62924 13.2676 4.58985 13.3079 4.54004 13.3379C4.49004 13.3679 4.41961 13.3779 4.34961 13.3779C4.27961 13.3779 4.20918 13.3679 4.15918 13.3379C4.10932 13.3079 4.06005 13.2676 4.04004 13.2178C4.01009 13.1679 4.00003 13.1079 4 13.0381V12.1582H3.83984ZM17 12.1582V13.0576C17 13.1476 17.0196 13.2376 17.0596 13.3076C17.0995 13.3775 17.1594 13.4375 17.2393 13.4775C17.3192 13.5175 17.4096 13.5381 17.5195 13.5381C17.6295 13.5381 17.7198 13.5175 17.7998 13.4775C17.8797 13.4375 17.9395 13.3775 17.9795 13.3076C18.0195 13.2376 18.0498 13.1476 18.0498 13.0576V12.1582H17.8896V13.0381H17.8594C17.8593 13.1079 17.8493 13.1579 17.8193 13.2178C17.7893 13.2677 17.7492 13.3079 17.6992 13.3379C17.6493 13.3677 17.5796 13.3779 17.5098 13.3779C17.4398 13.3779 17.3693 13.3679 17.3193 13.3379C17.2694 13.3079 17.2192 13.2677 17.1992 13.2178C17.1693 13.1679 17.1592 13.1079 17.1592 13.0381V12.1582H17ZM11.0498 12.1475C10.9298 12.1475 10.8293 12.1675 10.7393 12.2275C10.6493 12.2875 10.5793 12.3678 10.5293 12.4678C10.4793 12.5678 10.4492 12.698 10.4492 12.8379C10.4492 12.9778 10.4793 13.108 10.5293 13.208C10.5793 13.308 10.6493 13.3883 10.7393 13.4482C10.8293 13.4982 10.9298 13.5273 11.0498 13.5273C11.1695 13.5273 11.2695 13.508 11.3594 13.4482C11.4493 13.3883 11.5193 13.3079 11.5693 13.208C11.6193 13.108 11.6494 12.9778 11.6494 12.8379C11.6494 12.6979 11.6193 12.5678 11.5693 12.4678C11.5193 12.3678 11.4493 12.2875 11.3594 12.2275C11.2695 12.1777 11.1696 12.1475 11.0498 12.1475ZM31.3096 12.1475V13.0479C31.3096 13.1378 31.3292 13.2279 31.3691 13.2979C31.4091 13.3679 31.4698 13.4278 31.5498 13.4678H31.5195C31.5995 13.5078 31.6898 13.5273 31.7998 13.5273C31.9097 13.5273 32.0001 13.5077 32.0801 13.4678C32.1599 13.4278 32.2198 13.3677 32.2598 13.2979C32.2998 13.2279 32.3301 13.1378 32.3301 13.0479V12.1475H32.1699V13.0273C32.1699 13.0973 32.1599 13.148 32.1299 13.208C32.0999 13.258 32.0597 13.2981 32.0098 13.3281C31.9598 13.3581 31.8893 13.3682 31.8193 13.3682C31.7496 13.3681 31.6798 13.3579 31.6299 13.3281C31.58 13.2982 31.5298 13.2579 31.5098 13.208C31.4798 13.158 31.4697 13.0973 31.4697 13.0273V12.1475H31.3096ZM8.83008 12.168V13.5176H9.00977V12.4873H9.01953L9.43945 13.5176H9.58984L10.0098 12.4873H10.0195V13.5176H10.1699V12.168H9.96973L9.50977 13.2881H9.48926L9.0293 12.168H8.83008ZM11.9297 12.168V13.5176H12.0898V12.458H12.0996L12.8398 13.5176H13V12.168H12.8398V13.2373H12.8301L12.0898 12.168H11.9297ZM21.9297 12.168L22.2998 13.5176H22.4697L22.7695 12.4375H22.7793L23.0801 13.5176H23.25L23.6191 12.168H23.4492L23.1699 13.2676H23.1494L22.8594 12.168H22.6797L22.3896 13.2676H22.3799L22.0996 12.168H21.9297ZM35.7598 12.1475V13.5176H35.9199V12.9082H36.5098V12.7578H35.9199V12.2979H36.5693V12.1475H35.7598ZM36.8496 12.168V13.5176H37.0098V12.9873H37.3398L37.6299 13.5176H37.8193L37.5098 12.9482C37.5297 12.9383 37.5494 12.9375 37.5693 12.9375C37.6393 12.8975 37.6897 12.848 37.7197 12.7881C37.7497 12.7282 37.7695 12.658 37.7695 12.5781C37.7695 12.4983 37.7496 12.4281 37.7197 12.3682C37.6897 12.2982 37.6393 12.2578 37.5693 12.2178C37.4994 12.1878 37.4194 12.168 37.3096 12.168H36.8496ZM38.04 12.168V13.5176H38.1992V12.168H38.04ZM44.1396 12.1582V12.3076H44.5596V13.5176H44.7197V12.3076H45.1494V12.1582H44.1396ZM5.18945 12.1582V13.5078H5.34961V12.4482H5.35938L6.09961 13.5078H6.25977V12.1582H6.09961V13.2275H6.08984L5.34961 12.1582H5.18945ZM15.71 12.1475V12.2979H16.1299V13.5078H16.29V12.2979H16.7197V12.1475H15.71ZM24.9092 12.1582V13.5078H25.3301C25.4699 13.5077 25.5798 13.4777 25.6797 13.4277C25.7795 13.3778 25.8494 13.298 25.8994 13.1982C25.9494 13.0983 25.9795 12.9778 25.9795 12.8379C25.9795 12.6979 25.9592 12.5775 25.9092 12.4775L25.8994 12.4678C25.8494 12.3678 25.7794 12.2873 25.6895 12.2373C25.5895 12.1874 25.4795 12.1582 25.3496 12.1582H24.9092ZM28.6299 12.1475V12.2979H29.0498V13.5078H29.21V12.2979H29.6396V12.1475H28.6299ZM29.8896 12.1582V13.5078H30.0498V12.8975H30.7695V13.5078H30.9297V12.1582H30.7695V12.7578H30.0498V12.1582H29.8896ZM43.4795 12.1582L42.9795 13.5078H43.1494L43.29 13.1279H43.8398L43.9795 13.5078H44.1494L43.6494 12.1582H43.4795ZM23.8096 12.1475V13.498H24.6396V13.3477H23.9795V12.9082H24.5898V12.7578H23.9795V12.2979H24.6299V12.1475H23.8096ZM18.3496 12.1377V13.4873H19.1797V13.3379H18.5195V12.8975H19.1299V12.748H18.5195V12.2881H19.1699V12.1377H18.3496ZM11.0596 12.2979C11.1394 12.2979 11.2094 12.3176 11.2793 12.3574C11.3493 12.3974 11.3995 12.4581 11.4395 12.5381C11.4794 12.6181 11.5 12.718 11.5 12.8379C11.5 12.9578 11.4794 13.0577 11.4395 13.1377C11.3995 13.2177 11.3493 13.2774 11.2793 13.3174C11.2193 13.3574 11.1396 13.3779 11.0596 13.3779C10.9796 13.3779 10.9098 13.3574 10.8398 13.3174C10.7698 13.2774 10.7197 13.2177 10.6797 13.1377C10.6397 13.0577 10.6192 12.9578 10.6191 12.8379C10.6191 12.718 10.6398 12.618 10.6797 12.5381C10.7197 12.4581 10.7698 12.3974 10.8398 12.3574C10.8998 12.3176 10.9797 12.2979 11.0596 12.2979ZM25.3496 12.3174C25.4595 12.3174 25.5492 12.338 25.6191 12.3779C25.6891 12.4179 25.7393 12.4777 25.7793 12.5576C25.8093 12.6376 25.8301 12.7279 25.8301 12.8379L25.8193 12.8574C25.8193 12.9674 25.8095 13.0577 25.7695 13.1377C25.7395 13.2177 25.6794 13.2774 25.6094 13.3174C25.5295 13.3573 25.4398 13.3779 25.3301 13.3779H25.0898V12.3174H25.3496ZM43.5693 12.3779L43.79 12.9873H43.3398L43.5596 12.3779H43.5693ZM37.2998 12.3174C37.3796 12.3174 37.4395 12.3277 37.4795 12.3477C37.5295 12.3677 37.5601 12.3975 37.5801 12.4375C37.6001 12.4775 37.6094 12.5281 37.6094 12.5781C37.6093 12.6279 37.6 12.6779 37.5801 12.7178C37.5601 12.7578 37.5195 12.7876 37.4795 12.8076C37.4395 12.8276 37.3796 12.8379 37.3096 12.8379H37.0195L37.0098 12.8477V12.3174H37.2998ZM2.86523 2.49219L1.2002 3.50977V5.06934L2.67969 4.18359H2.71973V9.25781H4.55664V2.49219H2.86523ZM8.41016 2.39941C7.88602 2.39941 7.42886 2.49274 7.03906 2.67773C6.6494 2.86266 6.34739 3.12635 6.13379 3.46973C5.92017 3.81328 5.81348 4.22353 5.81348 4.69922H7.55762C7.55762 4.50987 7.59265 4.34891 7.66309 4.2168C7.73356 4.08466 7.83321 3.98429 7.96094 3.91602C8.09079 3.84787 8.24073 3.81348 8.41016 3.81348C8.5796 3.81352 8.72953 3.84779 8.85938 3.91602C8.98923 3.98208 9.09044 4.07692 9.16309 4.2002C9.23796 4.32352 9.27539 4.47251 9.27539 4.64648C9.27535 4.80494 9.24181 4.94925 9.17578 5.0791C9.11192 5.20893 9.01947 5.33575 8.89844 5.45898C8.77962 5.57998 8.63688 5.71006 8.46973 5.84863L5.94531 7.93652V9.25781H11.1387V7.79102H8.49609V7.75098L9.12988 7.22266C9.64501 6.79338 10.0426 6.42373 10.3223 6.11328C10.602 5.80276 10.7964 5.51913 10.9043 5.26367C11.0121 5.00613 11.0654 4.74705 11.0654 4.4873C11.0654 4.06681 10.9562 3.70033 10.7383 3.3877C10.5225 3.07514 10.2158 2.83287 9.81738 2.66113C9.42106 2.48719 8.95177 2.39945 8.41016 2.39941ZM39.9424 2.39941V9.25781H46.7998V2.39941H39.9424ZM15.7949 7.06445C15.5988 7.06445 15.4284 7.10594 15.2842 7.1875C15.1402 7.26904 15.0282 7.3828 14.9492 7.5293C14.8702 7.67592 14.8311 7.84791 14.8311 8.04395C14.8311 8.24806 14.87 8.42378 14.9482 8.57031C15.0273 8.71602 15.1404 8.82803 15.2861 8.90625C15.4327 8.98354 15.6071 9.02244 15.8096 9.02246C15.985 9.02246 16.1385 8.99609 16.2695 8.94336C16.4013 8.88981 16.507 8.81416 16.5869 8.71777C16.6667 8.62068 16.7178 8.5066 16.7393 8.375H16.1162C16.1031 8.41018 16.0825 8.44041 16.0547 8.46582C16.0267 8.49054 15.9927 8.51026 15.9531 8.52344C15.9144 8.5366 15.8711 8.54297 15.8242 8.54297C15.7568 8.54292 15.6991 8.52909 15.6514 8.50195C15.6037 8.47483 15.5675 8.43725 15.542 8.38965C15.5165 8.34191 15.503 8.28745 15.5029 8.22656V8.19629H16.7393V8.03809C16.7392 7.88751 16.7163 7.752 16.6719 7.63184C16.6274 7.5117 16.5647 7.40915 16.4824 7.3252C16.4001 7.24045 16.3005 7.17632 16.1846 7.13184C16.0684 7.08735 15.9383 7.06446 15.7949 7.06445ZM17.9316 7.06445C17.7259 7.06448 17.5499 7.10621 17.4033 7.18848C17.2567 7.27004 17.1437 7.38476 17.0654 7.53223C16.9873 7.6788 16.9482 7.84966 16.9482 8.04395C16.9483 8.23818 16.9872 8.40929 17.0654 8.55664C17.1437 8.70319 17.2567 8.81707 17.4033 8.89941C17.5499 8.98091 17.7258 9.02244 17.9316 9.02246C18.1194 9.02246 18.2809 8.98839 18.416 8.9209C18.5519 8.85334 18.6573 8.75737 18.7314 8.63379C18.8055 8.50946 18.8442 8.36339 18.8467 8.19629H18.2139C18.2089 8.2622 18.1937 8.3191 18.1689 8.36523C18.1451 8.41034 18.1138 8.44493 18.0752 8.46875C18.0365 8.49179 17.9916 8.50293 17.9414 8.50293C17.8822 8.50287 17.8305 8.48587 17.7861 8.45215C17.7417 8.41755 17.7073 8.36618 17.6826 8.29785C17.6579 8.22866 17.6455 8.14187 17.6455 8.03809C17.6455 7.93449 17.6579 7.84855 17.6826 7.78027C17.7073 7.71114 17.7417 7.65973 17.7861 7.62598C17.8305 7.59144 17.8822 7.57428 17.9414 7.57422C18.0172 7.57422 18.0792 7.60059 18.127 7.65332C18.1754 7.70514 18.2048 7.78049 18.2139 7.87988H18.8467C18.8458 7.71532 18.8073 7.57201 18.7324 7.4502C18.6575 7.32753 18.5517 7.23272 18.415 7.16602C18.2791 7.09846 18.1178 7.06445 17.9316 7.06445ZM20.0225 7.06445C19.8264 7.06445 19.6559 7.10594 19.5117 7.1875C19.3678 7.26904 19.2558 7.3828 19.1768 7.5293C19.0977 7.67592 19.0586 7.84791 19.0586 8.04395C19.0587 8.24806 19.0976 8.42378 19.1758 8.57031C19.2549 8.71601 19.3679 8.82803 19.5137 8.90625C19.6602 8.98354 19.8347 9.02244 20.0371 9.02246C20.2126 9.02246 20.3661 8.99609 20.4971 8.94336C20.6289 8.88981 20.7345 8.81416 20.8145 8.71777C20.8942 8.62068 20.9454 8.5066 20.9668 8.375H20.3438C20.3306 8.41018 20.31 8.44041 20.2822 8.46582C20.2542 8.49054 20.2202 8.51026 20.1807 8.52344C20.142 8.5366 20.0987 8.54297 20.0518 8.54297C19.9843 8.54292 19.9266 8.5291 19.8789 8.50195C19.8313 8.47483 19.795 8.43725 19.7695 8.38965C19.744 8.34191 19.7305 8.28745 19.7305 8.22656V8.19629H20.9668V8.03809C20.9668 7.88751 20.9439 7.752 20.8994 7.63184C20.8549 7.5117 20.7923 7.40915 20.71 7.3252C20.6277 7.24046 20.5281 7.17632 20.4121 7.13184C20.296 7.08735 20.1658 7.06446 20.0225 7.06445ZM27.6553 7.06445C27.4592 7.06445 27.2887 7.10594 27.1445 7.1875C27.0005 7.26905 26.8886 7.38276 26.8096 7.5293C26.7305 7.67593 26.6914 7.84788 26.6914 8.04395C26.6915 8.24806 26.7304 8.42378 26.8086 8.57031C26.8876 8.7159 26.9999 8.82805 27.1455 8.90625C27.2922 8.98369 27.4673 9.02246 27.6699 9.02246C27.8454 9.02246 27.9989 8.99609 28.1299 8.94336C28.2616 8.88981 28.3674 8.81413 28.4473 8.71777C28.527 8.62069 28.5782 8.50658 28.5996 8.375H27.9766C27.9634 8.41016 27.9428 8.44041 27.915 8.46582C27.887 8.49053 27.853 8.51026 27.8135 8.52344C27.7748 8.53662 27.7315 8.54297 27.6846 8.54297C27.6171 8.54294 27.5595 8.52911 27.5117 8.50195C27.4639 8.47477 27.4269 8.43742 27.4014 8.38965C27.3759 8.34193 27.3633 8.28743 27.3633 8.22656V8.19629H28.5996V8.03809C28.5996 7.88751 28.5767 7.752 28.5322 7.63184C28.4877 7.51165 28.4241 7.40918 28.3418 7.3252C28.2595 7.24051 28.1599 7.17626 28.0439 7.13184C27.9279 7.08743 27.7984 7.06447 27.6553 7.06445ZM24.5078 6.45703V8.9873H25.1846V8.67578H25.1992C25.2256 8.74004 25.2639 8.79853 25.3125 8.84961C25.3618 8.89967 25.4212 8.93917 25.4902 8.96875C25.5602 8.99757 25.6396 9.01269 25.7285 9.0127C25.8636 9.0127 25.9877 8.97708 26.1006 8.90625C26.2141 8.83548 26.3045 8.7279 26.3721 8.58398C26.4404 8.43981 26.4746 8.25723 26.4746 8.03809C26.4746 7.80927 26.4388 7.62275 26.3672 7.47949C26.2964 7.33649 26.2043 7.2317 26.0908 7.16504C25.978 7.09831 25.8586 7.06445 25.7334 7.06445C25.6395 7.06446 25.5572 7.08132 25.4863 7.11426C25.4155 7.14639 25.3564 7.18978 25.3086 7.24414C25.2608 7.29769 25.2239 7.35664 25.1992 7.4209H25.1895V6.45703H24.5078ZM12.3379 6.45703V8.9873H13.3115C13.5685 8.9873 13.7918 8.93741 13.9805 8.83691C14.169 8.73565 14.315 8.59082 14.418 8.40234C14.5209 8.21297 14.5722 7.98608 14.5723 7.72266C14.5723 7.45915 14.5207 7.23255 14.417 7.04395C14.314 6.85446 14.1669 6.70891 13.9766 6.6084C13.7871 6.50718 13.5619 6.45703 13.3018 6.45703H12.3379ZM23.5684 7.06445C23.4276 7.06445 23.3048 7.10018 23.2002 7.1709C23.0956 7.24088 23.0273 7.33413 22.9951 7.4502H22.9746C22.9548 7.33412 22.8971 7.24089 22.8008 7.1709C22.7044 7.10008 22.5895 7.06447 22.4561 7.06445C22.3243 7.06445 22.2108 7.09977 22.1152 7.16895C22.0197 7.23813 21.9517 7.3316 21.9121 7.4502H21.8926V7.08984H21.2451V8.9873H21.9268V7.87988C21.9268 7.82493 21.9361 7.7777 21.9541 7.73828C21.973 7.69793 21.9995 7.66693 22.0332 7.64551C22.0669 7.62411 22.1074 7.6133 22.1543 7.61328C22.2251 7.61328 22.2812 7.63776 22.3232 7.68555C22.3652 7.73241 22.3866 7.79691 22.3867 7.87988V8.9873H23.0391V7.87988C23.0391 7.7971 23.0595 7.73239 23.0996 7.68555C23.1408 7.63777 23.1966 7.61328 23.2666 7.61328C23.3375 7.61328 23.3935 7.63776 23.4355 7.68555C23.4774 7.73241 23.4989 7.79694 23.499 7.87988V8.9873H24.1807V7.70703C24.1806 7.51281 24.1243 7.35714 24.0107 7.24023C23.8979 7.1233 23.7503 7.0645 23.5684 7.06445ZM29.9902 7.06445C29.8889 7.06445 29.7994 7.09544 29.7236 7.15723C29.6488 7.21901 29.5942 7.31686 29.5596 7.4502H29.54V7.08984H28.8779V8.9873H29.5596V7.99902C29.5596 7.92653 29.575 7.86312 29.6055 7.80957C29.6359 7.75534 29.6778 7.7132 29.7305 7.68359C29.7839 7.65322 29.8445 7.6377 29.9111 7.6377C29.9465 7.63772 29.9889 7.64074 30.0381 7.64648C30.0875 7.65225 30.1293 7.66133 30.1631 7.67285V7.09082C30.1359 7.08258 30.1068 7.07639 30.0771 7.07227C30.0486 7.06739 30.0196 7.06448 29.9902 7.06445ZM25.4766 7.58887C25.5391 7.58889 25.5921 7.60733 25.6357 7.64355C25.6802 7.67898 25.7143 7.73037 25.7373 7.79785C25.7611 7.86442 25.7734 7.9445 25.7734 8.03809C25.7734 8.13179 25.7611 8.21281 25.7373 8.28027C25.7142 8.347 25.6802 8.3993 25.6357 8.43555C25.5921 8.47083 25.539 8.48826 25.4766 8.48828C25.4139 8.48828 25.3598 8.46984 25.3145 8.43359C25.2701 8.39655 25.2356 8.34488 25.2109 8.27832C25.187 8.21077 25.1748 8.13036 25.1748 8.03809C25.1748 7.94446 25.1871 7.86444 25.2109 7.79785C25.2356 7.73044 25.2701 7.67897 25.3145 7.64355C25.3598 7.60731 25.4139 7.58887 25.4766 7.58887ZM13.2676 7.04004C13.3993 7.04005 13.511 7.06023 13.6016 7.10059C13.6928 7.14098 13.7617 7.21084 13.8086 7.30957C13.8564 7.40843 13.8809 7.54639 13.8809 7.72266C13.8808 7.89873 13.8565 8.03599 13.8096 8.13477C13.7635 8.23358 13.6963 8.30338 13.6074 8.34375C13.5193 8.38412 13.4123 8.4043 13.2871 8.4043H13.0254V7.04004H13.2676ZM15.8096 7.54395C15.8664 7.54395 15.9174 7.55619 15.9619 7.58008C16.0072 7.60314 16.043 7.63577 16.0693 7.67773C16.0965 7.71891 16.1105 7.76695 16.1113 7.82129H15.5029C15.5046 7.76611 15.5197 7.71794 15.5469 7.67676C15.5749 7.63557 15.6121 7.60315 15.6582 7.58008C15.7042 7.55634 15.7546 7.54397 15.8096 7.54395ZM20.0371 7.54395C20.094 7.54395 20.145 7.55619 20.1895 7.58008C20.2347 7.60314 20.2705 7.63577 20.2969 7.67773C20.324 7.71891 20.338 7.76695 20.3389 7.82129H19.7305C19.7321 7.76611 19.7472 7.71794 19.7744 7.67676C19.8024 7.63557 19.8396 7.60315 19.8857 7.58008C19.9317 7.55634 19.9821 7.54397 20.0371 7.54395ZM27.6699 7.54395C27.7268 7.54395 27.7778 7.55619 27.8223 7.58008C27.8674 7.60314 27.9034 7.6358 27.9297 7.67773C27.9568 7.71889 27.9709 7.76698 27.9717 7.82129H27.3633C27.3649 7.76628 27.3792 7.71786 27.4062 7.67676C27.4342 7.63565 27.4716 7.60314 27.5176 7.58008C27.5637 7.55619 27.6147 7.54395 27.6699 7.54395ZM15.5469 2.63574C15.3351 2.63574 15.1523 2.68691 14.999 2.78906C14.8468 2.89035 14.7298 3.03825 14.6475 3.23242C14.5659 3.42685 14.5244 3.66249 14.5244 3.93848C14.5236 4.21496 14.5641 4.45169 14.6455 4.64844C14.7279 4.84525 14.8457 4.99581 14.998 5.09961C15.1513 5.20341 15.3343 5.25601 15.5469 5.25684C15.7594 5.25683 15.9423 5.20536 16.0947 5.10156C16.247 4.99781 16.3638 4.84712 16.4453 4.65039C16.5277 4.45355 16.5683 4.21601 16.5684 3.93848C16.5692 3.66249 16.5287 3.427 16.4463 3.2334C16.3639 3.03919 16.2459 2.89114 16.0928 2.78906C15.9404 2.68698 15.7585 2.63575 15.5469 2.63574ZM19.3252 2.66992L19.2051 4.00488L19.6807 4.08984C19.7193 4.03722 19.7737 3.99628 19.8428 3.96582C19.9128 3.93534 19.9854 3.91992 20.0596 3.91992C20.1442 3.92079 20.2194 3.93979 20.2852 3.97754C20.351 4.01537 20.4024 4.06834 20.4395 4.13574C20.4774 4.2033 20.4971 4.28212 20.4971 4.37109C20.497 4.45828 20.4784 4.53605 20.4414 4.60352C20.4052 4.67012 20.354 4.72191 20.2891 4.75977C20.2248 4.79684 20.1504 4.81543 20.0664 4.81543C19.9613 4.81538 19.8704 4.78528 19.7939 4.72461C19.7173 4.66365 19.6757 4.58339 19.6699 4.48535H19.1514C19.1547 4.63117 19.1955 4.76116 19.2754 4.87402C19.3553 4.98687 19.4637 5.0754 19.5996 5.13965C19.7363 5.20383 19.8919 5.23532 20.0664 5.23535C20.2542 5.23535 20.4189 5.19795 20.5605 5.12305C20.7031 5.04725 20.8145 4.94334 20.8936 4.81152C20.9733 4.67904 21.0125 4.52769 21.0117 4.35742C21.0125 4.19513 20.9784 4.05116 20.9092 3.92676C20.84 3.80171 20.7453 3.70344 20.626 3.63184C20.5066 3.5603 20.371 3.52443 20.2188 3.52441C20.1075 3.52441 20.0068 3.54475 19.917 3.58594C19.8272 3.62713 19.7603 3.67959 19.7158 3.74219H19.7012L19.7666 3.10742H20.8721V2.66992H19.3252ZM13.2324 2.63574C13.0563 2.63576 12.9006 2.66875 12.7656 2.73535C12.6306 2.80206 12.5252 2.89669 12.4502 3.01855C12.3752 3.14048 12.3379 3.2846 12.3379 3.4502H12.8457C12.8457 3.36947 12.8613 3.2997 12.8926 3.24121C12.9239 3.18272 12.9687 3.13775 13.0264 3.10645C13.0839 3.07525 13.1513 3.05962 13.2285 3.05957C13.3027 3.05957 13.3692 3.07483 13.4277 3.10449C13.4861 3.13329 13.5327 3.17427 13.5664 3.22852C13.6002 3.28207 13.6172 3.34675 13.6172 3.4209C13.6171 3.48746 13.6033 3.54988 13.5762 3.60742C13.549 3.66418 13.5087 3.72203 13.4561 3.78125C13.4042 3.84052 13.3402 3.90738 13.2637 3.98145L12.3623 4.81543V5.20117H14.167V4.76367H13.1045V4.74609L13.4736 4.38477C13.6475 4.22659 13.7824 4.0904 13.8779 3.97754C13.9732 3.86415 14.0391 3.76087 14.0762 3.66797C14.114 3.57492 14.1338 3.48028 14.1338 3.38477C14.1338 3.23899 14.0954 3.10991 14.0205 2.99707C13.9456 2.88428 13.841 2.79585 13.7061 2.73242C13.5718 2.66816 13.4137 2.63574 13.2324 2.63574ZM17.8203 2.63574C17.6442 2.63575 17.4885 2.66877 17.3535 2.73535C17.2185 2.80205 17.113 2.89672 17.0381 3.01855C16.9631 3.14048 16.9258 3.2846 16.9258 3.4502H17.4336C17.4336 3.36946 17.4492 3.2997 17.4805 3.24121C17.5118 3.18273 17.5566 3.13775 17.6143 3.10645C17.6718 3.07527 17.7392 3.0596 17.8164 3.05957C17.8906 3.05957 17.9571 3.07483 18.0156 3.10449C18.074 3.1333 18.1206 3.17427 18.1543 3.22852C18.1881 3.28207 18.2051 3.34675 18.2051 3.4209C18.205 3.48746 18.1912 3.54988 18.1641 3.60742C18.1369 3.66419 18.0966 3.72201 18.0439 3.78125C17.9921 3.84052 17.9281 3.90738 17.8516 3.98145L16.9502 4.81543V5.20117H18.7549V4.76367H17.6914V4.74609L18.0615 4.38477C18.2354 4.22659 18.3703 4.0904 18.4658 3.97754C18.5611 3.86416 18.627 3.76086 18.6641 3.66797C18.7019 3.57492 18.7217 3.48028 18.7217 3.38477C18.7217 3.23902 18.6833 3.1099 18.6084 2.99707C18.5335 2.88431 18.4289 2.79584 18.2939 2.73242C18.1597 2.66816 18.0016 2.63574 17.8203 2.63574ZM15.5469 3.07422C15.6433 3.07422 15.727 3.10664 15.7979 3.1709C15.8695 3.23516 15.9242 3.33136 15.9629 3.45898C16.0024 3.58666 16.0225 3.74657 16.0225 3.93848C16.0233 4.22999 15.981 4.44895 15.8945 4.59473C15.808 4.74051 15.6918 4.81347 15.5469 4.81348C15.4505 4.81348 15.3666 4.78099 15.2949 4.7168C15.2232 4.65171 15.1675 4.55415 15.1279 4.4248C15.0893 4.29474 15.0703 4.13265 15.0703 3.93848C15.0711 3.65102 15.1147 3.43519 15.2012 3.29102C15.2877 3.14684 15.4027 3.07422 15.5469 3.07422Z" fill="currentColor"/>
</svg>
