<svg width="28" height="27" viewBox="0 0 28 27" fill="none" xmlns="http://www.w3.org/2000/svg">
<path d="M9.52235 9.88763C9.761 9.88562 9.9987 9.85811 10.2311 9.80561C10.784 9.65041 11.2887 9.36513 11.7003 8.97516C12.1119 8.58519 12.4176 8.10264 12.5902 7.57046C12.9856 6.43842 13.026 5.21826 12.7066 4.06394C12.019 1.33665 9.85029 -0.416613 7.76625 0.0857828C5.6822 0.588179 4.59258 3.10016 5.29079 5.82745C5.90436 8.2369 7.64988 9.88763 9.52235 9.88763ZM8.27404 2.07486H8.47503C9.24729 2.07486 10.2629 3.01814 10.6543 4.56634C10.869 5.33081 10.8506 6.13919 10.6014 6.89376C10.485 7.1911 10.2206 7.714 9.73392 7.82679C8.95109 8.02159 7.77683 7.04756 7.34309 5.35582C6.90936 3.66407 7.4912 2.25942 8.27404 2.07486ZM5.32252 15.373C6.90936 14.5938 7.31136 12.3894 6.25347 10.349C5.19558 8.30868 3.0798 7.27312 1.51412 8.09336C-0.0515568 8.9136 -0.474712 11.077 0.583177 13.1173C0.890017 13.8106 1.38411 14.4108 2.0134 14.8546C2.64269 15.2985 3.38387 15.5697 4.15884 15.6396C4.56324 15.643 4.96249 15.5515 5.32252 15.373ZM2.4768 12.1946C1.89496 11.0872 2.08538 10.144 2.4768 9.91839C2.54325 9.90666 2.61135 9.90666 2.6778 9.91839C3.05633 9.99546 3.40877 10.1636 3.70271 10.4072C3.99664 10.6509 4.22262 10.9623 4.35984 11.3128C4.94168 12.4201 4.75126 13.3634 4.35984 13.589C3.96842 13.8145 3.04806 13.3019 2.4768 12.1946ZM17.52 9.92865C17.7523 9.98173 17.9901 10.0092 18.2288 10.0107C19.1461 9.97348 20.0167 9.6082 20.6725 8.98537C21.5687 8.15364 22.1908 7.08336 22.4603 5.90948C22.7794 4.75165 22.7389 3.52833 22.344 2.3927C22.17 1.86402 21.865 1.38475 21.4555 0.996862C21.0461 0.608975 20.5448 0.324311 19.9955 0.167807C19.4299 0.0535008 18.8438 0.0770341 18.2899 0.236296C17.736 0.395558 17.2316 0.68557 16.8218 1.08032C15.9256 1.91206 15.3035 2.98233 15.034 4.15622C14.7149 5.31404 14.7554 6.53736 15.1503 7.67299C15.3218 8.2097 15.6281 8.69676 16.0417 9.09045C16.4552 9.48415 16.9632 9.77216 17.52 9.92865ZM17.1074 4.67912C17.2816 3.90055 17.6859 3.18801 18.2711 2.62852C18.5539 2.35493 18.9301 2.19086 19.329 2.16714H19.53C19.7384 2.2511 19.9246 2.37951 20.0748 2.54281C20.225 2.70612 20.3353 2.90012 20.3974 3.11041C20.6273 3.86675 20.6273 4.67125 20.3974 5.42759C20.2233 6.20615 19.8189 6.9187 19.2338 7.47818C19.0794 7.63705 18.8894 7.75942 18.6784 7.83586C18.4675 7.9123 18.2413 7.94077 18.0172 7.91906C17.8088 7.8351 17.6226 7.70669 17.4724 7.54339C17.3222 7.38008 17.2119 7.18608 17.1497 6.97579C16.9102 6.22977 16.8955 5.43295 17.1074 4.67912ZM26.4803 8.09336C24.8935 7.31414 22.8094 8.29842 21.741 10.349C20.6725 12.3996 21.0851 14.5938 22.6719 15.373C23.0319 15.5515 23.4312 15.643 23.8356 15.6396C24.6106 15.5697 25.3517 15.2985 25.981 14.8546C26.6103 14.4108 27.1044 13.8106 27.4113 13.1173C28.4692 11.077 28.0672 8.87259 26.4803 8.09336ZM25.5176 12.1946C24.9464 13.3019 24.0154 13.7428 23.6346 13.548C23.2538 13.3531 23.0528 12.3791 23.6346 11.2718C24.2164 10.1645 25.1368 9.73384 25.5176 9.91839C25.8985 10.1029 26.0995 11.0872 25.5176 12.1946ZM19.0222 15.7113C18.5937 14.7422 17.8981 13.9062 17.0117 13.2949C16.1253 12.6836 15.0824 12.3206 13.9972 12.2458C12.8932 12.3242 11.8344 12.7024 10.9419 13.3371C10.0495 13.9717 9.3595 14.8372 8.95108 15.8344C5.19558 16.8597 2.88938 18.8385 2.88938 21.1967C2.91665 22.2008 3.32319 23.1603 4.0319 23.8932C5.74568 25.6875 9.08861 26.6 13.9972 26.6C18.9058 26.6 22.1959 25.6875 23.8356 23.9342C23.9601 23.8078 24.0766 23.6743 24.1847 23.5344C24.7339 22.8544 25.0385 22.019 25.0522 21.1557C25.0522 18.6642 22.7565 16.6033 19.0222 15.7113ZM22.4603 22.3245C22.4466 22.354 22.4288 22.3816 22.4074 22.4065L22.3017 22.5193C21.0851 23.8317 18.1336 24.5699 13.9972 24.5699C9.86087 24.5699 6.93052 23.8625 5.65047 22.5193C5.28183 22.1604 5.06327 21.682 5.03689 21.1762C5.03689 19.751 7.04688 18.3463 10.0301 17.6799C10.2208 17.6383 10.3959 17.5464 10.5359 17.4143C10.676 17.2822 10.7755 17.115 10.8235 16.9314C11.0346 16.2447 11.4469 15.632 12.0102 15.1679C12.5736 14.7038 13.2639 14.4082 13.9972 14.3169C14.7194 14.4085 15.4003 14.6957 15.9617 15.1455C16.5231 15.5953 16.9422 16.1894 17.1709 16.8597C17.2214 17.0427 17.3233 17.2086 17.4652 17.3389C17.6072 17.4692 17.7836 17.5588 17.9749 17.5979C21.011 18.2028 22.8941 19.5767 22.8941 21.1659C22.8874 21.5883 22.7347 21.9963 22.4603 22.3245Z" fill="currentColor"/>
</svg>
