<svg width="28" height="28" viewBox="0 0 28 28" fill="none" xmlns="http://www.w3.org/2000/svg">
<path d="M27.024 0.0336538L26.7212 0H18.6442L18.3077 0.0673077C18.0833 0.134615 17.8926 0.246795 17.7356 0.403846C17.5112 0.650641 17.3766 0.987179 17.3317 1.41346C17.3317 1.75 17.4551 2.04728 17.7019 2.30529C17.9487 2.5633 18.2628 2.69231 18.6442 2.69231H23.3558L17.3317 8.71635C16.3894 7.9984 15.3798 7.44872 14.3029 7.06731C13.1587 6.66346 11.9808 6.46154 10.7692 6.46154C8.81731 6.46154 7.01122 6.95513 5.35096 7.94231C3.71314 8.88462 2.42308 10.1747 1.48077 11.8125C0.49359 13.4728 0 15.2788 0 17.2308C0 19.1827 0.49359 20.9888 1.48077 22.649C2.42308 24.2869 3.71314 25.5769 5.35096 26.5192C7.01122 27.5064 8.81731 28 10.7692 28C12.7212 28 14.5272 27.5064 16.1875 26.5192C17.8253 25.5769 19.1154 24.2869 20.0577 22.649C21.0449 20.9888 21.5385 19.1827 21.5385 17.2308C21.5385 16.0192 21.3365 14.8413 20.9327 13.6971C20.5513 12.6202 20.0016 11.6106 19.2837 10.6683L25.3077 4.64423V9.35577C25.3077 9.73718 25.4367 10.0513 25.6947 10.2981C25.9527 10.5449 26.2612 10.6683 26.6202 10.6683C26.9792 10.6683 27.2821 10.528 27.5288 10.2476C27.7756 9.96715 27.899 9.63622 27.899 9.25481V1.17788H28C27.9776 0.841346 27.8542 0.560897 27.6298 0.336538C27.4728 0.201923 27.2708 0.100962 27.024 0.0336538ZM10.7692 25.3077C9.3109 25.3077 7.97596 24.9487 6.76442 24.2308C5.55288 23.5128 4.58814 22.5481 3.87019 21.3365C3.15224 20.125 2.79327 18.7957 2.79327 17.3486C2.79327 15.9014 3.15224 14.5665 3.87019 13.3438C4.58814 12.121 5.55288 11.1506 6.76442 10.4327C7.97596 9.71474 9.3109 9.35577 10.7692 9.35577C12.2276 9.35577 13.5625 9.71474 14.774 10.4327C15.9856 11.1506 16.9503 12.121 17.6683 13.3438C18.3862 14.5665 18.7452 15.9014 18.7452 17.3486C18.7452 18.7957 18.3862 20.125 17.6683 21.3365C16.9503 22.5481 15.9856 23.5128 14.774 24.2308C13.5625 24.9487 12.2276 25.3077 10.7692 25.3077Z" fill="currentColor"/>
</svg>
