<svg width="26" height="28" viewBox="0 0 26 28" fill="none" xmlns="http://www.w3.org/2000/svg">
<path d="M20.7448 1.57597C20.0237 1.04034 19.1997 0.638627 18.2727 0.370816C17.3868 0.123605 16.4392 0 15.4297 0C13.7405 0 12.1748 0.391417 10.7327 1.17425C9.22886 1.97768 8.02371 3.13133 7.11727 4.6352C6.21083 5.99486 5.68551 7.48842 5.54131 9.11589C5.4177 10.6816 5.65976 12.206 6.26749 13.6893C6.87521 15.1726 7.7868 16.4395 9.00225 17.4902L8.01341 19.0661L2.17306 15.3271L1.77134 15.1417C1.48293 14.9974 1.21512 14.9356 0.967909 14.9562C0.617694 14.9768 0.360183 15.1313 0.195376 15.4198C-0.0930362 15.873 -0.0621349 16.3365 0.28808 16.8103C0.452887 17.0575 0.648596 17.2532 0.875205 17.3974L6.71556 21.1674L3.44001 26.2043L3.34731 26.4824C3.28551 26.709 3.28551 26.9151 3.34731 27.1005C3.42971 27.3683 3.62542 27.5949 3.93444 27.7803C4.22285 27.9451 4.49066 28.0172 4.73787 27.9966C4.92328 27.9966 5.10869 27.9451 5.2941 27.8421C5.4177 27.7597 5.5207 27.6567 5.60311 27.5331L8.87865 22.4344L14.6263 26.2043L15.028 26.3897C15.3576 26.5133 15.6563 26.5648 15.9242 26.5442C16.295 26.503 16.5834 26.3176 16.7894 25.988C16.9748 25.7408 16.9954 25.4627 16.8512 25.1537C16.7688 24.9271 16.604 24.7005 16.3568 24.4739L16.0169 24.2266L10.1765 20.364L11.1653 18.8807C12.4838 19.5399 13.9053 19.8696 15.4297 19.8696C17.0984 19.8696 18.6538 19.4781 20.0958 18.6953C21.5997 17.8713 22.8048 16.7176 23.7113 15.2344C24.7001 13.7305 25.2254 12.0927 25.2873 10.321C25.3491 8.61117 24.9885 6.9734 24.2057 5.40773C23.4023 3.82146 22.2486 2.54421 20.7448 1.57597ZM21.8572 13.9365C21.1568 14.9871 20.2606 15.8112 19.1688 16.4086C18.0769 17.006 16.8924 17.3047 15.6151 17.3047C14.9147 17.3047 14.2091 17.2017 13.4984 16.9957C12.7877 16.7897 12.1439 16.491 11.5671 16.0996C10.4134 15.358 9.53273 14.4 8.925 13.2258C8.31727 12.0515 8.04431 10.8155 8.10611 9.51761C8.14732 8.19915 8.53873 6.9734 9.28036 5.84035C9.98079 4.85151 10.8872 4.05322 11.9997 3.4455C13.1121 2.83777 14.2864 2.51331 15.5224 2.47211C16.2229 2.47211 16.9284 2.56996 17.6392 2.76567C18.3499 2.96138 18.9937 3.25494 19.5705 3.64636C20.7036 4.40859 21.5739 5.37683 22.1817 6.55108C22.7894 7.72533 23.0727 8.95108 23.0315 10.2283C22.9903 11.5674 22.5988 12.8034 21.8572 13.9365Z" fill="currentColor"/>
</svg>
